<?xml version="1.0" encoding="UTF-8"?><svg id="Layer_1" xmlns="http://www.w3.org/2000/svg" viewBox="0 0 1000 1000"><defs><style>.cls-1{fill:#f2f2f2;}.cls-2{fill:#1a1a1a;}</style></defs><rect class="cls-2" width="1000" height="1000"/><g><path class="cls-1" d="M592.36,596.35c-14.81-14.48-15.38-33.2-1.7-47.98,7.88-5.54,13.03-14.78,13.08-25.2,.04-9.64-4.46-18.33-11.47-24.03-14.87-15.52-15.28-35.6-1.21-51.34,6.79-5.43,11.17-13.74,11.11-22.88-.11-15.8-13.4-29.04-29.18-29.06-15.77-.02-29.08,13.19-29.23,29.01-.09,9.59,4.79,18.32,12.14,23.74,6.3,7.29,8.98,15.17,9.3,24.09-.29,9.48-3.22,17.83-10.36,25.55-7.53,5.53-12.51,14.38-12.66,24.32-.15,10.11,4.9,19.23,12.61,24.98,7.1,7.18,10.07,14.96,10.41,23.82-.29,9-3.27,16.91-10.54,24.23-3.94,2.65-7.3,6.12-9.83,10.14-6.23,6.53-12.96,9.29-20.61,9.62-7.76-.28-14.62-3.07-20.97-9.76-5.94-9.36-16.41-15.69-28.1-15.65-18.16,.06-33.29,15.34-33.1,33.41,.19,17.95,14.95,32.72,32.91,32.93,11.3,.13,21.51-5.73,27.59-14.59,13.1-14.28,29.86-14.33,42.96-.16,5.94,8.77,15.94,14.62,27.19,14.75,18.06,.21,33.35-14.92,33.43-33.08,.05-10.9-5.45-20.74-13.78-26.85Z"/><path class="cls-1" d="M375.52,651.72c16.06,.24,29.64-13.05,29.78-29.16,.14-16.07-13.23-29.58-29.32-29.62-15.82-.04-29.1,12.96-29.45,28.82-.35,16.05,12.87,29.71,28.99,29.95Z"/><path class="cls-1" d="M475.81,693.05c-7.86-.11-14.95,2.87-20.14,7.81-.27,.16-.54,.33-.8,.55-18.18,15.4-41.95,16.18-60.68,2.35-4.69-4.88-11.26-7.93-18.47-7.87-13.97,.11-25.42,11.82-25.22,25.79,0,.02,0,.03,0,.05,0,.03,0,.06,0,.09,.2,13.71,11.58,24.98,25.29,25.05,7.57,.04,14.42-3.35,19.12-8.66,8.47-6.11,17.62-8.71,27.96-9.03,11.95,.31,22.36,3.65,31.97,11.94,.22,.19,.45,.35,.68,.5,4.95,4.83,11.66,7.85,19.12,7.96,15.93,.23,28.75-12.21,28.84-28.01,.1-15.62-12.2-28.29-27.67-28.51Z"/><path class="cls-1" d="M573.31,696.34c-13.94-.09-25.69,11.78-25.44,25.69,.25,13.74,11.86,25.08,25.52,24.94,13.72-.14,25.13-11.66,25.1-25.35-.03-13.7-11.47-25.19-25.18-25.27Z"/><path class="cls-1" d="M375.81,350.98c6.56,.04,12.62-2.62,17.19-6.88,18.96-14.43,43.26-14.11,61.96,.96,5.12,5.36,12.29,8.75,20.19,8.77,15.45,.04,28.21-12.74,28.15-28.19-.05-15.18-12.51-27.77-27.68-27.99-8.41-.12-16.04,3.58-21.3,9.46-9.27,7.39-19.31,10.46-30.79,10.81-10.97-.28-20.66-3.04-29.64-9.68-4.59-4.71-10.95-7.7-17.88-7.74-13.66-.08-25.27,11.44-25.35,25.14-.08,13.66,11.44,25.27,25.14,25.35Z"/><path class="cls-1" d="M573.15,300.8c-13.53,.02-24.68,11.05-24.9,24.63-.22,13.72,11.19,25.26,24.96,25.24,13.53-.02,24.68-11.05,24.9-24.63,.22-13.72-11.19-25.26-24.96-25.24Z"/><path class="cls-1" d="M475.05,249.92c7.14,.05,13.39-3.17,17.42-8.27,9.96-5.5,20.74-7.78,33.1-8.04,12.94,.23,24.22,2.66,34.64,8.7,.17,.1,.35,.18,.53,.27,3.22,2.73,7.4,4.38,12.08,4.45,10.82,.16,19.28-7.98,19.44-18.7,.16-10.82-7.98-19.28-18.7-19.44-4.7-.07-8.95,1.43-12.27,4.02-.36,.13-.71,.27-1.05,.47-20.47,11.67-47.47,11.82-68.09,.47-3.9-4.7-9.74-7.7-16.41-7.85-12.37-.26-22.28,9.28-22.45,21.62-.17,12.37,9.43,22.2,21.79,22.29Z"/><path class="cls-1" d="M276.95,501.55c-11.74-.16-21.48,9.13-21.81,20.81-.33,12.02,9.18,21.98,21.13,22.15,11.74,.16,21.48-9.13,21.81-20.81,.33-12.02-9.18-21.98-21.13-22.15Z"/><path class="cls-1" d="M672.22,501.73c-11.6,.18-21.31,10.21-21.02,21.73,.28,11.38,9.88,20.81,21.22,20.86,11.58,.05,21.43-9.82,21.36-21.39-.07-11.6-10-21.37-21.56-21.19Z"/><path class="cls-1" d="M276.29,602.03c-11.38,.13-20.11,9.15-19.98,20.64,.13,11.38,9.15,20.12,20.63,19.98,11.38-.13,20.11-9.15,19.98-20.64-.13-11.38-9.15-20.12-20.63-19.98Z"/><path class="cls-1" d="M672.68,602.22c-11.04-.1-20.13,8.75-20.31,19.76-.18,11.04,8.6,20.22,19.6,20.48,11.31,.27,20.63-8.81,20.65-20.1,.01-11.04-8.91-20.05-19.93-20.14Z"/><path class="cls-1" d="M276.53,445.23c11.11,.04,20.07-8.7,20.26-19.76,.19-11.15-8.4-20.25-19.42-20.59-11.42-.35-20.74,8.44-20.93,19.75-.19,11.41,8.73,20.56,20.09,20.6Z"/><path class="cls-1" d="M672.81,445.11c10.96-.1,19.98-9.28,19.88-20.24-.1-10.96-9.28-19.98-20.23-19.88-10.96,.1-19.98,9.28-19.88,20.24,.1,10.97,9.28,19.98,20.23,19.88Z"/><path class="cls-1" d="M672.14,700.75c-10.56,.25-19.06,8.88-19.14,19.42-.08,10.76,8.81,19.68,19.58,19.64,10.79-.04,19.62-8.99,19.47-19.75-.15-10.8-9.18-19.56-19.92-19.3Z"/><path class="cls-1" d="M376.05,246.95c10.75-.06,19.03-8.39,19.05-19.15,.02-10.77-8.24-19.13-18.98-19.22-11.04-.1-19.53,8.44-19.39,19.48,.14,10.73,8.54,18.95,19.31,18.89Z"/><path class="cls-1" d="M277.89,342.6c9.32,.05,17.1-7.82,16.93-17.12-.17-9.09-7.71-16.55-16.79-16.59-9.32-.05-17.1,7.82-16.93,17.12,.17,9.09,7.71,16.55,16.79,16.59Z"/><path class="cls-1" d="M672.77,342.08c9.32-.07,16.33-7.28,16.19-16.65-.14-9.29-7.43-16.24-16.82-16.03-9.01,.2-15.85,7.24-15.86,16.32,0,9.34,7.13,16.43,16.49,16.36Z"/><path class="cls-1" d="M732.81,770.07c-6.45,.06-11.93,5.62-11.88,12.05,.06,6.45,5.62,11.93,12.05,11.88,6.45-.06,11.93-5.62,11.88-12.05-.06-6.45-5.62-11.93-12.05-11.88Z"/><path class="cls-1" d="M358.4,497.62c-7.92,5.47-13.16,14.5-13.31,24.78-.26,17.31,13.43,31.4,30.61,31.51,17,.11,30.92-13.41,31.18-30.28,.16-10.45-4.78-19.73-12.5-25.46-13.81-15.2-14.07-34.49-.79-49.82,6.97-5.33,11.6-13.69,11.72-22.99,.21-15.96-13.16-29.55-29.18-29.65-15.75-.1-29.04,12.84-29.48,28.68-.27,9.97,4.81,19.09,12.59,24.59,6.06,7.18,8.66,14.93,8.97,23.69-.28,9.24-3.08,17.39-9.82,24.94Z"/></g></svg>