<?xml version="1.0" encoding="UTF-8" standalone="no"?>
<svg
   xmlns:dc="http://purl.org/dc/elements/1.1/"
   xmlns:cc="http://creativecommons.org/ns#"
   xmlns:rdf="http://www.w3.org/1999/02/22-rdf-syntax-ns#"
   xmlns:svg="http://www.w3.org/2000/svg"
   xmlns="http://www.w3.org/2000/svg"
   xmlns:sodipodi="http://sodipodi.sourceforge.net/DTD/sodipodi-0.dtd"
   xmlns:inkscape="http://www.inkscape.org/namespaces/inkscape"
   width="210mm"
   height="297mm"
   viewBox="0 0 210 297"
   version="1.1"
   id="svg8"
   inkscape:version="1.0.1 (3bc2e813f5, 2020-09-07)"
   sodipodi:docname="quark works 2.svg">
  <defs
     id="defs2" />
  <sodipodi:namedview
     id="base"
     pagecolor="#ffffff"
     bordercolor="#666666"
     borderopacity="1.0"
     inkscape:pageopacity="0.0"
     inkscape:pageshadow="2"
     inkscape:zoom="2.8284271"
     inkscape:cx="281.06672"
     inkscape:cy="593.5404"
     inkscape:document-units="mm"
     inkscape:current-layer="layer1"
     inkscape:document-rotation="0"
     showgrid="false"
     inkscape:window-width="3440"
     inkscape:window-height="1369"
     inkscape:window-x="-8"
     inkscape:window-y="244"
     inkscape:window-maximized="1" />
  <metadata
     id="metadata5">
    <rdf:RDF>
      <cc:Work
         rdf:about="">
        <dc:format>image/svg+xml</dc:format>
        <dc:type
           rdf:resource="http://purl.org/dc/dcmitype/StillImage" />
        <dc:title></dc:title>
      </cc:Work>
    </rdf:RDF>
  </metadata>
  <g
     inkscape:label="Layer 1"
     inkscape:groupmode="layer"
     id="layer1">
    <text
       xml:space="preserve"
       style="font-size:10.5833px;line-height:1.25;font-family:'Source Code Pro';-inkscape-font-specification:'Source Code Pro';letter-spacing:-0.264583px;stroke-width:0.264583"
       x="48.380955"
       y="140.60715"
       id="text835"><tspan
         sodipodi:role="line"
         id="tspan833"
         x="48.380955"
         y="140.60715"
         style="font-style:normal;font-variant:normal;font-weight:bold;font-stretch:normal;font-family:Comfortaa;-inkscape-font-specification:'Comfortaa Bold';stroke-width:0.264583"
         dx="0">quarkworks</tspan></text>
    <path
       id="path855"
       style="font-style:normal;font-variant:normal;font-weight:bold;font-stretch:normal;font-size:10.5833px;line-height:1.25;font-family:Comfortaa;-inkscape-font-specification:'Comfortaa Bold';letter-spacing:-0.264583px;stroke-width:0.999999"
       d="M 188.93164 592.8418 C 188.63277 592.8418 188.346 592.86765 188.06641 592.9043 C 186.36909 593.03811 184.80461 593.47817 183.39062 594.30859 C 181.7373 595.26859 180.41635 596.58953 179.42969 598.26953 C 178.46969 599.94953 177.99023 601.84255 177.99023 603.94922 C 177.99023 606.05589 178.43055 607.94891 179.31055 609.62891 C 180.21721 611.28222 181.44357 612.60124 182.99023 613.58789 C 184.5369 614.54789 186.28381 615.0293 188.23047 615.0293 C 189.8038 615.0293 191.25651 614.70835 192.58984 614.06836 C 193.92317 613.40169 195.04451 612.50866 195.95117 611.38867 L 195.95117 622.1875 C 195.95117 622.7742 196.13642 623.25549 196.50977 623.62891 C 196.90976 624.02897 197.41792 624.22852 198.03125 624.22852 C 198.61791 624.22852 199.09736 624.02889 199.4707 623.62891 C 199.84403 623.2556 200.0323 622.7742 200.03125 622.1875 L 200 604.80273 C 200.00076 604.74824 200.00977 604.69739 200.00977 604.64258 L 200.00977 594.88281 C 200.00977 594.29615 199.70545 593.81678 199.33203 593.44336 C 198.93204 593.0433 198.43826 592.8418 197.85156 592.8418 L 189.03125 592.8418 L 188.93164 592.8418 z M 189.03125 596.42773 C 190.39124 596.42773 191.60326 596.76106 192.66992 597.42773 C 193.73658 598.06772 194.57808 598.9627 195.19141 600.10938 C 195.80473 601.22936 196.11133 602.50922 196.11133 603.94922 C 196.11133 605.36254 195.80474 606.64239 195.19141 607.78906 C 194.57808 608.90905 193.73658 609.80208 192.66992 610.46875 C 191.60326 611.10862 190.39124 611.42773 189.03125 611.42773 C 187.69792 611.42773 186.48396 611.10874 185.39062 610.46875 C 184.32396 609.80208 183.47008 608.90905 182.83008 607.78906 C 182.21675 606.64239 181.91016 605.36254 181.91016 603.94922 C 181.91016 602.50922 182.21675 601.22936 182.83008 600.10938 C 183.47008 598.9627 184.32396 598.06772 185.39062 597.42773 C 186.48396 596.7611 187.69792 596.42773 189.03125 596.42773 z "
       transform="scale(0.26458333)" />
    <path
       d="m 56.999318,162.73678 c -0.486832,0 -0.924275,-0.10221 -1.312329,-0.30682 -0.380999,-0.21167 -0.684387,-0.51858 -0.910164,-0.92075 -0.218721,-0.40216 -0.328082,-0.89605 -0.328082,-1.48166 v -2.60349 c 0,-0.15522 0.04939,-0.28222 0.148166,-0.381 0.105833,-0.10583 0.23636,-0.15875 0.391582,-0.15875 0.155221,0 0.282221,0.0529 0.380999,0.15875 0.105833,0.0988 0.158749,0.22578 0.158749,0.381 v 2.60349 c 0,0.39511 0.07408,0.7232 0.222249,0.98425 0.148167,0.254 0.349249,0.4445 0.603248,0.5715 0.253999,0.11994 0.539749,0.17991 0.857248,0.17991 0.303388,0 0.571498,-0.06 0.80433,-0.17991 0.239889,-0.11995 0.430388,-0.28222 0.571499,-0.48683 0.141111,-0.20461 0.211666,-0.43392 0.211666,-0.68792 1.151073,0.652 0.03141,1.23045 0.539748,2.32823 z m 2.338909,0 c -0.358034,-0.063 -0.470702,-0.3104 -0.539748,-0.59255 v -4.72015 c 0,-0.16228 0.04939,-0.29281 0.148166,-0.39158 0.105833,-0.0988 0.23636,-0.14817 0.391582,-0.14817 0.162277,0 0.292805,0.0494 0.391582,0.14817 0.09878,0.0988 0.148166,0.2293 0.148166,0.39158 v 4.72015 c 0,0.15522 -0.04939,0.28575 -0.148166,0.39158 -0.09878,0.0988 -0.229305,0.20097 -0.391582,0.20097 z"
       style="font-style:normal;font-variant:normal;font-weight:bold;font-stretch:normal;font-size:10.5833px;line-height:1.25;font-family:Comfortaa;-inkscape-font-specification:'Comfortaa Bold';letter-spacing:-0.264583px;stroke-width:0.264583"
       id="path857"
       sodipodi:nodetypes="sccsssscssccscsccsccscsssscc" />
    <path
       d="m 63.93137,162.72592 c -0.515054,0 -0.977191,-0.12663 -1.386412,-0.38063 -0.409221,-0.26105 -0.733776,-0.6103 -0.973664,-1.04774 -0.232833,-0.4445 -0.349249,-0.94544 -0.349249,-1.50283 0,-0.55739 0.127,-1.05833 0.380999,-1.50283 0.261055,-0.4445 0.610304,-0.79375 1.047747,-1.04775 0.444499,-0.26105 0.941914,-0.39158 1.492245,-0.39158 0.550331,0 1.044219,0.13053 1.481662,0.39158 0.437443,0.254 0.783164,0.60325 1.037163,1.04775 0.261055,0.4445 0.391582,0.94544 0.391582,1.50283 -0.900814,0.0135 -0.504686,2.15371 -0.539748,2.9312 z m 0.211666,-0.95212 c 0.359832,0 0.680859,-0.0847 0.96308,-0.254 0.282221,-0.17639 0.504471,-0.41275 0.666748,-0.70908 0.162277,-0.30339 0.243416,-0.64206 0.243416,-1.016 0,-0.381 -0.08114,-0.71967 -0.243416,-1.016 -0.162277,-0.30339 -0.384527,-0.53975 -0.666748,-0.70908 -0.282221,-0.17639 -0.603248,-0.26458 -0.96308,-0.26458 -0.352777,0 -0.673803,0.0882 -0.96308,0.26458 -0.282221,0.16933 -0.507998,0.40569 -0.677331,0.70908 -0.162277,0.29633 -0.243416,0.635 -0.243416,1.016 0,0.37394 0.08114,0.71261 0.243416,1.016 0.169333,0.29633 0.39511,0.53269 0.677331,0.70908 0.289277,0.16933 0.610303,0.254 0.96308,0.254 z m 2.370659,0.95212 c -0.887448,-0.22843 -0.539748,-1.45848 -0.539748,-2.19037 0.162434,-1.11451 0.06806,-1.17953 1.079496,-0.74083 v 2.36007 c 0,0.15523 -0.05292,0.28576 -0.158749,0.39159 -0.09878,0.0988 -0.225777,0.17954 -0.380999,0.17954 z"
       style="font-style:normal;font-variant:normal;font-weight:bold;font-stretch:normal;font-size:10.5833px;line-height:1.25;font-family:Comfortaa;-inkscape-font-specification:'Comfortaa Bold';letter-spacing:-0.264583px;stroke-width:0.264583"
       id="path859"
       sodipodi:nodetypes="sccsccsccccssccsccsccsccscccssc" />
    <path
       d="m 68.916096,159.06447 q 0,-0.635 0.306915,-1.13241 0.317499,-0.508 0.846664,-0.80433 0.529165,-0.29633 1.164163,-0.29633 0.634998,0 0.941914,0.21166 0.317499,0.20108 0.243416,0.48683 -0.03175,0.14817 -0.127,0.23284 -0.08467,0.0741 -0.201083,0.0952 -0.116416,0.0212 -0.253999,-0.0106 -0.677331,-0.13758 -1.217079,-0.0212 -0.539749,0.11641 -0.857248,0.43391 -0.306915,0.3175 -0.306915,0.80433 z m 0.01058,3.61949 q -0.253999,0 -0.391582,-0.127 -0.137583,-0.13758 -0.137583,-0.40217 v -4.73073 q 0,-0.254 0.137583,-0.39158 0.137583,-0.13758 0.391582,-0.13758 0.264582,0 0.391582,0.13758 0.137583,0.127 0.137583,0.39158 v 4.73073 q 0,0.254 -0.137583,0.39159 -0.127,0.13758 -0.391582,0.13758 z"
       style="font-style:normal;font-variant:normal;font-weight:bold;font-stretch:normal;font-size:10.5833px;line-height:1.25;font-family:Comfortaa;-inkscape-font-specification:'Comfortaa Bold';letter-spacing:-0.264583px;stroke-width:0.264583"
       id="path861" />
    <path
       d="m 74.292392,160.5673 -0.656165,-0.71966 3.249073,-2.89983 q 0.15875,-0.14816 0.349249,-0.13758 0.201083,0.0106 0.338666,0.16933 0.148166,0.15875 0.137583,0.34925 -0.01058,0.1905 -0.169333,0.33867 z m -0.497415,2.11666 q -0.232833,0 -0.380999,-0.13758 -0.137583,-0.14817 -0.137583,-0.381 v -7.2284 q 0,-0.23283 0.137583,-0.37041 0.148166,-0.14817 0.380999,-0.14817 0.232833,0 0.370415,0.14817 0.148167,0.13758 0.148167,0.37041 v 7.2284 q 0,0.23283 -0.148167,0.381 -0.137582,0.13758 -0.370415,0.13758 z m 3.778238,-0.0529 q -0.169333,0.13759 -0.380999,0.11642 -0.201083,-0.0106 -0.338665,-0.17992 l -2.14841,-2.6564 0.740831,-0.6985 2.201326,2.70932 q 0.137583,0.16934 0.116416,0.37042 -0.01058,0.1905 -0.190499,0.33866 z"
       style="font-style:normal;font-variant:normal;font-weight:bold;font-stretch:normal;font-size:10.5833px;line-height:1.25;font-family:Comfortaa;-inkscape-font-specification:'Comfortaa Bold';letter-spacing:-0.264583px;stroke-width:0.264583"
       id="path863" />
    <path
       d="m 83.203504,162.68396 q -0.169333,0 -0.317499,-0.0953 -0.137583,-0.10583 -0.1905,-0.254 l -1.566328,-4.69898 q -0.08467,-0.32809 0,-0.52917 0.09525,-0.21166 0.402165,-0.21166 0.201083,0 0.328083,0.11641 0.137583,0.10583 0.222249,0.37042 l 1.333496,4.16982 h -0.370416 l 1.259413,-4.25449 q 0.05292,-0.17992 0.179916,-0.28575 0.127,-0.11641 0.349249,-0.11641 0.211666,0 0.338665,0.11641 0.137583,0.10583 0.179917,0.28575 l 1.02658,4.00049 h -0.15875 l 1.248829,-3.91582 q 0.148167,-0.48683 0.550332,-0.48683 0.296332,0 0.402165,0.21166 0.105833,0.20108 -0.01058,0.52917 l -1.566328,4.69898 q -0.04233,0.14817 -0.179916,0.254 -0.137583,0.0953 -0.317499,0.0953 -0.169333,0 -0.317499,-0.0953 -0.148166,-0.10583 -0.1905,-0.254 l -1.09008,-4.03224 h 0.105833 l -1.142996,4.03224 q -0.04233,0.14817 -0.190499,0.254 -0.137583,0.0953 -0.317499,0.0953 z"
       style="font-style:normal;font-variant:normal;font-weight:bold;font-stretch:normal;font-size:10.5833px;line-height:1.25;font-family:Comfortaa;-inkscape-font-specification:'Comfortaa Bold';letter-spacing:-0.264583px;stroke-width:0.264583"
       id="path865" />
    <path
       d="m 91.723041,162.72629 q -0.857248,0 -1.513412,-0.37041 -0.656165,-0.381 -1.037163,-1.03717 -0.370416,-0.66674 -0.370416,-1.52399 0,-0.86783 0.370416,-1.524 0.380998,-0.66674 1.037163,-1.03716 0.656164,-0.381 1.513412,-0.381 0.846664,0 1.502828,0.381 0.656165,0.37042 1.02658,1.03716 0.380999,0.65617 0.380999,1.524 0,0.85725 -0.370415,1.52399 -0.370416,0.65617 -1.02658,1.03717 -0.656165,0.37041 -1.513412,0.37041 z m 0,-0.95249 q 0.550331,0 0.973663,-0.254 0.423332,-0.254 0.656165,-0.6985 0.243416,-0.4445 0.243416,-1.02658 0,-0.58208 -0.243416,-1.02658 -0.232833,-0.45508 -0.656165,-0.70908 -0.423332,-0.254 -0.973663,-0.254 -0.550332,0 -0.973664,0.254 -0.423332,0.254 -0.666748,0.70908 -0.243416,0.4445 -0.243416,1.02658 0,0.58208 0.243416,1.02658 0.243416,0.4445 0.666748,0.6985 0.423332,0.254 0.973664,0.254 z"
       style="font-style:normal;font-variant:normal;font-weight:bold;font-stretch:normal;font-size:10.5833px;line-height:1.25;font-family:Comfortaa;-inkscape-font-specification:'Comfortaa Bold';letter-spacing:-0.264583px;stroke-width:0.264583"
       id="path867" />
    <path
       d="m 96.496099,159.06447 q 0,-0.635 0.306916,-1.13241 0.317499,-0.508 0.846664,-0.80433 0.529165,-0.29633 1.164163,-0.29633 0.634998,0 0.941914,0.21166 0.317494,0.20108 0.243415,0.48683 -0.03175,0.14817 -0.126999,0.23284 -0.08467,0.0741 -0.201083,0.0952 -0.116416,0.0212 -0.253999,-0.0106 -0.677331,-0.13758 -1.21708,-0.0212 -0.539748,0.11641 -0.857247,0.43391 -0.306915,0.3175 -0.306915,0.80433 z m 0.01058,3.61949 q -0.254,0 -0.391583,-0.127 -0.137582,-0.13758 -0.137582,-0.40217 v -4.73073 q 0,-0.254 0.137582,-0.39158 0.137583,-0.13758 0.391583,-0.13758 0.264582,0 0.391582,0.13758 0.137583,0.127 0.137583,0.39158 v 4.73073 q 0,0.254 -0.137583,0.39159 -0.127,0.13758 -0.391582,0.13758 z"
       style="font-style:normal;font-variant:normal;font-weight:bold;font-stretch:normal;font-size:10.5833px;line-height:1.25;font-family:Comfortaa;-inkscape-font-specification:'Comfortaa Bold';letter-spacing:-0.264583px;stroke-width:0.264583"
       id="path869" />
    <path
       d="m 101.8724,160.5673 -0.65617,-0.71966 3.24908,-2.89983 q 0.15875,-0.14816 0.34924,-0.13758 0.20109,0.0106 0.33867,0.16933 0.14817,0.15875 0.13758,0.34925 -0.0106,0.1905 -0.16933,0.33867 z m -0.49742,2.11666 q -0.23283,0 -0.381,-0.13758 -0.13758,-0.14817 -0.13758,-0.381 v -7.2284 q 0,-0.23283 0.13758,-0.37041 0.14817,-0.14817 0.381,-0.14817 0.23284,0 0.37042,0.14817 0.14816,0.13758 0.14816,0.37041 v 7.2284 q 0,0.23283 -0.14816,0.381 -0.13758,0.13758 -0.37042,0.13758 z m 3.77824,-0.0529 q -0.16933,0.13759 -0.381,0.11642 -0.20108,-0.0106 -0.33866,-0.17992 l -2.14841,-2.6564 0.74083,-0.6985 2.20132,2.70932 q 0.13759,0.16934 0.11642,0.37042 -0.0106,0.1905 -0.1905,0.33866 z"
       style="font-style:normal;font-variant:normal;font-weight:bold;font-stretch:normal;font-size:10.5833px;line-height:1.25;font-family:Comfortaa;-inkscape-font-specification:'Comfortaa Bold';letter-spacing:-0.264583px;stroke-width:0.264583"
       id="path871" />
    <path
       d="m 108.71978,162.72629 q -0.74084,0 -1.37583,-0.22225 -0.62442,-0.23283 -0.97367,-0.58208 -0.15875,-0.16933 -0.13758,-0.381 0.0318,-0.22225 0.21167,-0.35983 0.21166,-0.16933 0.41274,-0.13758 0.21167,0.0212 0.35984,0.17991 0.17991,0.20109 0.57149,0.381 0.40217,0.16934 0.889,0.16934 0.61383,0 0.93133,-0.20109 0.32808,-0.20108 0.33867,-0.51858 0.0106,-0.3175 -0.30692,-0.55033 -0.30691,-0.23283 -1.13241,-0.381 -1.06891,-0.21166 -1.55575,-0.635 -0.47624,-0.42333 -0.47624,-1.03716 0,-0.53975 0.31749,-0.889 0.3175,-0.35983 0.81492,-0.52916 0.49741,-0.17992 1.03716,-0.17992 0.6985,0 1.23825,0.22225 0.53975,0.22225 0.85725,0.61383 0.14816,0.16934 0.13758,0.35983 -0.0106,0.17992 -0.17992,0.30692 -0.16933,0.11642 -0.40216,0.0741 -0.23284,-0.0423 -0.39159,-0.1905 -0.26458,-0.254 -0.57149,-0.34924 -0.30692,-0.0952 -0.70908,-0.0952 -0.46567,0 -0.79375,0.15875 -0.3175,0.15874 -0.3175,0.46566 0,0.1905 0.0953,0.34925 0.10583,0.14817 0.40216,0.27516 0.29634,0.11642 0.86783,0.23284 0.79375,0.15875 1.24883,0.40216 0.46567,0.24342 0.66675,0.5715 0.20108,0.3175 0.20108,0.74083 0,0.48683 -0.26458,0.87842 -0.254,0.39158 -0.762,0.62441 -0.49741,0.23283 -1.24882,0.23283 z"
       style="font-style:normal;font-variant:normal;font-weight:bold;font-stretch:normal;font-size:10.5833px;line-height:1.25;font-family:Comfortaa;-inkscape-font-specification:'Comfortaa Bold';letter-spacing:-0.264583px;stroke-width:0.264583"
       id="path873" />
    <path
       id="path855-0"
       style="font-style:normal;font-variant:normal;font-weight:bold;font-stretch:normal;font-size:10.5833px;line-height:1.25;font-family:Comfortaa;-inkscape-font-specification:'Comfortaa Bold';letter-spacing:-0.264583px;stroke-width:0.264583"
       d="m 53.767221,170.40153 c -0.07908,0 -0.154951,0.007 -0.228925,0.0165 -0.449083,0.0354 -0.863018,0.15183 -1.237137,0.37155 -0.437441,0.254 -0.786942,0.6035 -1.047996,1.048 -0.254,0.4445 -0.380857,0.94536 -0.380857,1.50275 0,0.55739 0.116502,1.05825 0.349335,1.50275 0.239887,0.43744 0.564361,0.78643 0.973582,1.04748 0.409223,0.254 0.871426,0.38137 1.38648,0.38137 0.416277,0 0.80064,-0.0849 1.153417,-0.25424 0.352777,-0.17639 0.649464,-0.41268 0.889352,-0.70901 v 2.85719 c 0,0.15524 0.04901,0.28258 0.147796,0.38138 0.105831,0.10585 0.240281,0.15864 0.402558,0.15864 0.155221,0 0.282075,-0.0528 0.380855,-0.15864 0.09878,-0.0988 0.14859,-0.22614 0.148312,-0.38138 l -0.0083,-4.59972 c 2.01e-4,-0.0144 0.0026,-0.0279 0.0026,-0.0424 v -2.58227 c 0,-0.15522 -0.08052,-0.28206 -0.179319,-0.38086 -0.105833,-0.10585 -0.236479,-0.15916 -0.39171,-0.15916 h -2.333707 z m 0.02635,0.94878 c 0.359831,0 0.680511,0.0882 0.962731,0.26458 0.282221,0.16933 0.504868,0.40613 0.667145,0.70952 0.162274,0.29633 0.243395,0.63496 0.243395,1.01596 0,0.37394 -0.08112,0.71257 -0.243395,1.01596 -0.162277,0.29633 -0.384924,0.53261 -0.667144,0.709 -0.282221,0.1693 -0.602901,0.25373 -0.962732,0.25373 -0.352776,0 -0.67397,-0.0844 -0.96325,-0.25373 -0.28222,-0.17639 -0.508142,-0.41267 -0.677476,-0.709 -0.162277,-0.30339 -0.243395,-0.64202 -0.243395,-1.01596 0,-0.381 0.08112,-0.71963 0.243395,-1.01596 0.169334,-0.30339 0.395256,-0.54019 0.677476,-0.70952 0.28928,-0.17638 0.610474,-0.26458 0.96325,-0.26458 z" />
    <path
       d="m 60.415972,176.22943 q -0.169334,0 -0.3175,-0.0953 -0.137584,-0.10583 -0.1905,-0.254 l -1.566328,-4.69898 q -0.08467,-0.32809 0,-0.52917 0.09525,-0.21166 0.402166,-0.21166 0.201084,0 0.328084,0.11641 0.13758,0.10583 0.222247,0.37042 l 1.333497,4.16982 h -0.370416 l 1.259414,-4.25449 q 0.05292,-0.17992 0.179914,-0.28575 0.127,-0.11641 0.34925,-0.11641 0.211666,0 0.338664,0.11641 0.137583,0.10583 0.179916,0.28575 l 1.026581,4.00049 h -0.15875 l 1.248831,-3.91582 q 0.148166,-0.48683 0.55033,-0.48683 0.296334,0 0.402164,0.21166 0.105834,0.20108 -0.01058,0.52917 l -1.566331,4.69898 q -0.04233,0.14817 -0.179917,0.254 -0.137583,0.0953 -0.3175,0.0953 -0.169333,0 -0.317497,-0.0953 -0.148167,-0.10583 -0.1905,-0.254 l -1.090075,-4.03224 h 0.105833 l -1.142997,4.03224 q -0.04233,0.14817 -0.190498,0.254 -0.137583,0.0953 -0.3175,0.0953 z"
       style="font-style:normal;font-variant:normal;font-weight:bold;font-stretch:normal;font-size:10.5833px;line-height:1.25;font-family:Comfortaa;-inkscape-font-specification:'Comfortaa Bold';letter-spacing:-0.264583px;stroke-width:0.264583"
       id="path865-6" />
  </g>
</svg>
