<?xml version="1.0" standalone="no"?>
<!DOCTYPE svg PUBLIC "-//W3C//DTD SVG 20010904//EN"
 "http://www.w3.org/TR/2001/REC-SVG-20010904/DTD/svg10.dtd">
<svg version="1.0" xmlns="http://www.w3.org/2000/svg"
 width="1500.000000pt" height="1500.000000pt" viewBox="0 0 1500.000000 1500.000000"
 preserveAspectRatio="xMidYMid meet">
<metadata>
Created by potrace 1.14, written by Peter Selinger 2001-2017
</metadata>
<g transform="translate(0.000000,1500.000000) scale(0.100000,-0.100000)"
fill="#000000" stroke="none">
<path d="M0 7500 l0 -7500 7500 0 7500 0 0 7500 0 7500 -7500 0 -7500 0 0
-7500z m7071 6116 c85 -18 159 -56 218 -111 80 -75 268 -152 468 -192 134 -27
433 -24 569 5 185 40 241 62 514 204 196 101 438 21 536 -177 27 -56 29 -68
29 -175 0 -105 -2 -120 -27 -171 -38 -76 -109 -146 -188 -183 -52 -24 -81 -31
-151 -34 -99 -5 -166 12 -238 60 -325 217 -845 273 -1254 136 -118 -39 -204
-82 -233 -118 -14 -16 -48 -44 -77 -63 -191 -127 -450 -96 -599 72 -205 231
-115 612 172 725 89 36 166 42 261 22z m-2040 -62 c112 -34 206 -120 248 -229
76 -201 -9 -419 -199 -509 -60 -29 -73 -31 -170 -31 -98 0 -110 2 -170 32
-118 58 -188 147 -216 271 -46 208 67 403 271 468 57 18 172 17 236 -2z m2109
-1860 c193 -56 359 -231 405 -425 74 -315 -132 -637 -450 -704 -88 -18 -142
-18 -230 0 -92 19 -197 72 -269 135 -123 108 -286 197 -441 242 -71 20 -101
23 -260 22 -167 0 -187 -2 -270 -27 -125 -38 -252 -104 -370 -192 -141 -106
-252 -143 -386 -131 -217 20 -400 172 -463 385 -21 70 -21 202 0 272 38 128
130 247 246 316 76 46 204 77 288 70 132 -12 199 -43 358 -165 286 -221 729
-255 1072 -82 85 43 139 80 217 151 75 68 180 123 273 144 77 17 200 13 280
-11z m2005 -59 c231 -60 389 -264 389 -500 0 -459 -554 -686 -880 -361 -105
105 -164 264 -150 404 32 316 339 535 641 457z m-6151 -176 c77 -28 148 -96
188 -177 29 -58 33 -76 33 -147 0 -71 -4 -88 -33 -147 -105 -214 -372 -266
-545 -108 -77 71 -112 149 -112 255 0 67 5 90 29 143 36 77 114 152 189 181
71 27 178 28 251 0z m8223 -11 c88 -32 165 -114 192 -202 26 -86 26 -136 0
-221 -27 -89 -105 -172 -192 -204 -77 -28 -177 -28 -251 0 -228 85 -286 400
-104 564 94 84 233 109 355 63z m-6172 -1789 c28 -5 88 -28 134 -51 66 -31
101 -57 161 -117 128 -129 187 -281 177 -456 -10 -160 -70 -288 -192 -410
-173 -172 -249 -342 -248 -555 0 -219 75 -381 266 -572 77 -77 102 -110 135
-179 54 -109 72 -183 72 -294 0 -173 -64 -330 -184 -450 -125 -124 -279 -187
-456 -187 -281 0 -512 166 -606 437 -25 71 -28 94 -28 205 0 109 4 134 27 198
45 127 93 194 240 329 154 143 238 428 193 652 -35 174 -93 275 -238 421 -110
110 -158 196 -184 327 -56 286 123 591 404 684 113 38 201 42 327 18z m4164
-19 c76 -27 195 -105 246 -161 59 -66 110 -152 136 -231 34 -103 34 -273 0
-368 -33 -95 -83 -171 -172 -262 -155 -157 -229 -319 -237 -515 -3 -81 0 -131
12 -186 31 -139 119 -290 235 -406 88 -86 125 -135 161 -213 43 -92 60 -170
60 -273 0 -199 -71 -352 -224 -490 -162 -146 -246 -323 -246 -520 0 -205 87
-378 275 -549 102 -93 174 -198 212 -310 25 -73 28 -94 28 -216 0 -121 -3
-143 -27 -211 -39 -111 -92 -195 -172 -274 -85 -83 -171 -136 -281 -172 -68
-22 -97 -26 -200 -26 -103 0 -132 4 -200 26 -149 49 -200 87 -400 299 -109
115 -241 183 -378 194 -94 8 -172 -8 -277 -58 -78 -37 -97 -53 -225 -183 -77
-79 -166 -160 -198 -180 -269 -169 -616 -126 -845 105 -363 364 -210 974 283
1137 68 23 98 27 200 27 107 1 130 -2 209 -28 145 -48 245 -125 388 -298 81
-99 245 -181 388 -194 87 -8 196 15 293 64 74 37 144 100 255 230 29 34 73 76
98 94 93 66 197 234 228 368 22 91 20 230 -3 322 -37 145 -95 234 -251 388
-75 75 -104 111 -133 170 -49 99 -67 176 -67 282 0 118 14 176 67 287 39 82
57 106 142 190 109 107 148 159 196 264 131 286 59 653 -165 847 -73 63 -144
168 -178 263 -22 61 -26 89 -27 187 0 142 25 228 97 336 84 126 194 207 338
251 99 31 261 27 359 -7z m-6188 -196 c255 -120 318 -466 121 -667 -93 -95
-194 -133 -330 -124 -393 24 -531 534 -205 759 77 52 136 68 248 65 88 -2 108
-6 166 -33z m8242 -2 c167 -78 269 -267 238 -438 -41 -220 -230 -369 -444
-351 -139 12 -276 107 -340 236 -30 62 -32 72 -32 176 0 98 3 116 27 167 76
164 219 251 398 245 71 -2 97 -8 153 -35z m-8308 -1988 c215 -55 360 -275 326
-493 -40 -255 -282 -423 -533 -370 -203 43 -348 223 -348 433 0 294 271 505
555 430z m8206 6 c182 -35 327 -181 360 -365 43 -230 -130 -467 -368 -504
-185 -29 -374 73 -461 248 -36 73 -37 78 -37 186 0 108 1 113 38 187 61 125
175 216 307 244 71 16 95 16 161 4z m-6064 -1925 c263 -89 436 -340 420 -610
-12 -195 -109 -365 -272 -473 -112 -76 -185 -97 -330 -97 -148 0 -232 24 -343
98 -115 77 -197 189 -248 337 -29 83 -26 252 4 345 62 184 187 317 370 391
124 50 267 53 399 9z m-2177 -165 c115 -22 229 -100 284 -194 67 -115 75 -279
18 -400 -40 -85 -113 -158 -200 -199 -63 -30 -73 -32 -182 -32 -110 0 -119 2
-181 32 -347 171 -301 688 70 785 78 20 119 22 191 8z m8340 -36 c154 -72 241
-207 241 -373 0 -95 -20 -162 -70 -237 -146 -218 -451 -246 -638 -58 -159 158
-161 409 -6 575 90 97 175 131 313 126 81 -2 104 -7 160 -33z m-4141 -1869
c231 -55 410 -257 439 -498 43 -342 -203 -635 -548 -654 -169 -9 -285 33 -445
162 -162 131 -267 186 -432 227 -127 32 -360 32 -488 0 -123 -31 -277 -108
-357 -177 -123 -109 -235 -156 -375 -156 -205 -1 -382 109 -473 294 -103 211
-65 435 102 601 109 109 223 156 376 156 124 0 235 -43 337 -130 244 -208 583
-284 895 -199 142 38 316 136 455 256 51 44 185 109 250 121 77 15 193 13 264
-3z m2030 -70 c92 -24 161 -65 236 -139 110 -109 154 -215 155 -372 0 -199
-110 -374 -293 -464 -182 -89 -367 -73 -534 46 -222 158 -282 472 -135 700 72
110 186 195 309 229 65 18 196 18 262 0z m2052 -91 c109 -32 203 -113 256
-223 25 -50 28 -67 28 -161 0 -102 -1 -109 -38 -182 -79 -160 -252 -251 -419
-220 -270 50 -416 323 -304 567 27 60 100 143 153 176 89 55 222 73 324 43z
m1215 -1439 c190 -56 235 -309 77 -430 -219 -168 -505 109 -347 337 29 41 74
73 133 94 48 17 77 17 137 -1z"/>
</g>
</svg>
