<?xml version="1.0" encoding="UTF-8" standalone="no"?>
<svg
   xmlns:dc="http://purl.org/dc/elements/1.1/"
   xmlns:cc="http://creativecommons.org/ns#"
   xmlns:rdf="http://www.w3.org/1999/02/22-rdf-syntax-ns#"
   xmlns:svg="http://www.w3.org/2000/svg"
   xmlns="http://www.w3.org/2000/svg"
   xmlns:sodipodi="http://sodipodi.sourceforge.net/DTD/sodipodi-0.dtd"
   xmlns:inkscape="http://www.inkscape.org/namespaces/inkscape"
   width="66.058853mm"
   height="11.852238mm"
   viewBox="0 0 66.058853 11.852238"
   version="1.1"
   id="svg1543"
   inkscape:version="1.0.1 (3bc2e813f5, 2020-09-07)"
   sodipodi:docname="quark works new full.svg">
  <defs
     id="defs1537" />
  <sodipodi:namedview
     id="base"
     pagecolor="#000000"
     bordercolor="#666666"
     borderopacity="1.0"
     inkscape:pageopacity="0"
     inkscape:pageshadow="2"
     inkscape:zoom="7.9195959"
     inkscape:cx="116.31358"
     inkscape:cy="19.99533"
     inkscape:document-units="mm"
     inkscape:current-layer="layer1"
     inkscape:document-rotation="0"
     showgrid="false"
     inkscape:pagecheckerboard="true"
     inkscape:window-width="3440"
     inkscape:window-height="1369"
     inkscape:window-x="-8"
     inkscape:window-y="244"
     inkscape:window-maximized="1" />
  <metadata
     id="metadata1540">
    <rdf:RDF>
      <cc:Work
         rdf:about="">
        <dc:format>image/svg+xml</dc:format>
        <dc:type
           rdf:resource="http://purl.org/dc/dcmitype/StillImage" />
        <dc:title></dc:title>
      </cc:Work>
    </rdf:RDF>
  </metadata>
  <g
     inkscape:label="Layer 1"
     inkscape:groupmode="layer"
     id="layer1"
     transform="translate(-6.71345,-50.971317)">
    <path
       id="path855"
       style="font-style:normal;font-variant:normal;font-weight:bold;font-stretch:normal;font-size:10.5833px;line-height:1.25;font-family:Comfortaa;-inkscape-font-specification:'Comfortaa Bold';letter-spacing:-0.264583px;fill:#44bba4;fill-opacity:1;stroke-width:0.999999"
       d="m 134.44531,196.84375 c -0.58668,0 -1.06613,0.18525 -1.43945,0.55859 -0.34668,0.34666 -0.51953,0.81374 -0.51953,1.40039 v 27.32032 c 0,0.58666 0.17285,1.06611 0.51953,1.43945 0.37332,0.34666 0.85277,0.51953 1.43945,0.51953 0.58666,0 1.05373,-0.17287 1.40039,-0.51953 0.37334,-0.37334 0.56055,-0.85279 0.56055,-1.43945 v -6.11328 l 1.99023,-1.77539 7.60938,9.4082 c 0.34666,0.42663 0.77264,0.65298 1.2793,0.67969 0.53334,0.0533 1.01474,-0.0928 1.4414,-0.43946 0.45329,-0.37331 0.69204,-0.79929 0.71875,-1.27929 0.0533,-0.50666 -0.0928,-0.97371 -0.43945,-1.4004 l -7.74219,-9.52734 7.3418,-6.55273 c 0.39997,-0.37334 0.61392,-0.7993 0.64062,-1.2793 0.0267,-0.48 -0.14619,-0.92031 -0.51953,-1.32031 -0.34666,-0.39995 -0.77459,-0.61392 -1.28125,-0.64063 -0.48,-0.0267 -0.92031,0.14622 -1.32031,0.51953 l -9.71875,8.67578 v -16.27539 c 0,-0.58665 -0.18721,-1.05373 -0.56055,-1.40039 -0.34666,-0.37334 -0.81373,-0.55859 -1.40039,-0.55859 z m 104.24024,0 c -0.58666,0 -1.06611,0.18525 -1.43946,0.55859 -0.34665,0.34666 -0.52148,0.81374 -0.52148,1.40039 v 27.32032 c 0,0.58666 0.17483,1.06611 0.52148,1.43945 0.37335,0.34666 0.8528,0.51953 1.43946,0.51953 0.58668,0 1.05373,-0.17287 1.40039,-0.51953 0.37331,-0.37334 0.55859,-0.85279 0.55859,-1.43945 v -6.11328 l 1.99024,-1.77539 7.61132,9.4082 c 0.34666,0.42663 0.77264,0.65298 1.2793,0.67969 0.53334,0.0533 1.0128,-0.0928 1.43945,-0.43946 0.4533,-0.37331 0.694,-0.79929 0.72071,-1.27929 0.0533,-0.50666 -0.0928,-0.97371 -0.43946,-1.4004 l -7.74218,-9.52929 7.34179,-6.55078 c 0.39995,-0.37334 0.61197,-0.7993 0.63868,-1.2793 0.0267,-0.48 -0.14619,-0.92031 -0.51954,-1.32031 -0.34665,-0.39995 -0.77261,-0.61392 -1.27929,-0.64063 -0.47998,-0.0267 -0.92032,0.14622 -1.32032,0.51953 l -9.7207,8.67774 v -16.27735 c 0,-0.58665 -0.18528,-1.05373 -0.55859,-1.40039 -0.34666,-0.37334 -0.81371,-0.55859 -1.40039,-0.55859 z m -113.91993,9.11914 c -1.6,0 -3.06704,0.37248 -4.40039,1.11914 -0.89735,0.50252 -1.66257,1.13676 -2.31835,1.88086 v -0.75977 c 0,-0.66665 -0.17483,-1.16046 -0.52149,-1.48046 -0.32,-0.34666 -0.81183,-0.51954 -1.47851,-0.51954 -0.63998,0 -1.13379,0.17288 -1.48047,0.51954 -0.34666,0.34665 -0.51953,0.84047 -0.51953,1.48046 v 17.87891 c 0,0.66668 0.17287,1.17483 0.51953,1.52149 0.34668,0.32 0.84049,0.47851 1.48047,0.47851 0.66668,0 1.15851,-0.17287 1.47851,-0.51953 0.34666,-0.34668 0.52149,-0.84047 0.52149,-1.48047 v -11.67969 c 0,-1.22665 0.38681,-2.23906 1.16015,-3.03906 0.8,-0.8 1.87828,-1.34731 3.23828,-1.64062 1.35998,-0.29324 2.89491,-0.26658 4.60157,0.0801 0.34668,0.0801 0.66566,0.0925 0.95898,0.0391 0.29327,-0.0532 0.54635,-0.17267 0.75976,-0.35938 0.23988,-0.21334 0.40035,-0.50556 0.48047,-0.8789 0.18666,-0.72 -0.11992,-1.33319 -0.91992,-1.83985 -0.77334,-0.53331 -1.96057,-0.80078 -3.56055,-0.80078 z m 104.24024,0 c -1.6,0 -3.06707,0.37248 -4.40039,1.11914 -0.89737,0.50252 -1.66453,1.13676 -2.32031,1.88086 v -0.75977 c 0,-0.66665 -0.17285,-1.16046 -0.51954,-1.48046 -0.31999,-0.34666 -0.81381,-0.51954 -1.48046,-0.51954 -0.64,0 -1.13381,0.17288 -1.48047,0.51954 -0.34669,0.34665 -0.51953,0.84047 -0.51953,1.48046 v 17.87891 c 0,0.66668 0.17284,1.17483 0.51953,1.52149 0.34666,0.32 0.84047,0.47851 1.48047,0.47851 0.66665,0 1.16046,-0.17287 1.48046,-0.51953 0.34669,-0.34668 0.51954,-0.84047 0.51954,-1.48047 v -11.67969 c 0,-1.22665 0.38684,-2.23906 1.16015,-3.03906 0.8,-0.8 1.88024,-1.34731 3.24024,-1.64062 1.36,-0.29324 2.89295,-0.26658 4.59961,0.0801 0.34665,0.0801 0.66759,0.0925 0.96093,0.0391 0.29324,-0.0532 0.54635,-0.17267 0.75977,-0.35938 0.23987,-0.21334 0.40034,-0.50556 0.48047,-0.8789 0.18666,-0.72 -0.11992,-1.33319 -0.91992,-1.83985 -0.77332,-0.53331 -1.96055,-0.80078 -3.56055,-0.80078 z m -131.039063,0.0801 c -2.079988,0 -3.960625,0.49382 -5.640625,1.48047 -1.653317,0.96 -2.972301,2.27898 -3.958984,3.95898 -0.960001,1.68 -1.441407,3.57302 -1.441407,5.67969 0,2.10667 0.440325,4.00164 1.320313,5.68164 0.906671,1.65332 2.133029,2.97234 3.679687,3.95898 1.546659,0.96 3.293551,1.43946 5.240235,1.43946 h 9.759764 c 0.5867,0 1.06604,-0.30627 1.43945,-0.67969 0.40007,-0.39999 0.60157,-0.89377 0.60157,-1.48047 v -8.91992 c 0,-2.10667 -0.49383,-3.99969 -1.48047,-5.67969 -0.96,-1.68 -2.26661,-2.99898 -3.91992,-3.95898 -1.65336,-0.98665 -3.51959,-1.48047 -5.599613,-1.48047 z m 104.238283,0 c -2.16,0 -4.06544,0.47945 -5.71875,1.43945 -1.65334,0.93334 -2.95995,2.23995 -3.91992,3.91992 -0.93335,1.65335 -1.40039,3.57311 -1.40039,5.75977 0,2.16 0.46704,4.07979 1.40039,5.75977 0.95997,1.65334 2.26658,2.96187 3.91992,3.92187 1.65331,0.93332 3.55875,1.39844 5.71875,1.39844 2.16,0 4.06738,-0.46512 5.7207,-1.39844 1.65334,-0.96 2.94559,-2.26853 3.87891,-3.92187 0.93334,-1.67998 1.40039,-3.59977 1.40039,-5.75977 0,-2.18666 -0.47946,-4.10642 -1.43946,-5.75977 -0.93334,-1.67997 -2.22754,-2.98658 -3.88085,-3.91992 -1.65335,-0.96 -3.54638,-1.43945 -5.67969,-1.43945 z m 63.96094,0 c -1.36,0 -2.66661,0.22634 -3.91993,0.67969 -1.25334,0.42665 -2.28007,1.09334 -3.08007,2 -0.79998,0.88 -1.20118,1.99937 -1.20118,3.35937 0,1.54666 0.60081,2.85326 1.80078,3.91992 1.22669,1.06669 3.18559,1.86708 5.87891,2.40039 2.08,0.37335 3.50793,0.85475 4.28125,1.44141 0.80005,0.58666 1.18687,1.27812 1.16016,2.07813 -0.0267,0.79999 -0.45459,1.45427 -1.28125,1.96093 -0.8,0.50669 -1.97288,0.75977 -3.51953,0.75977 -1.22666,0 -2.34604,-0.21394 -3.35938,-0.64063 -0.98666,-0.45331 -1.70684,-0.93277 -2.16016,-1.43945 -0.37334,-0.3999 -0.82798,-0.62627 -1.36132,-0.67969 -0.50666,-0.08 -1.02528,0.0929 -1.5586,0.51953 -0.45321,0.34666 -0.72065,0.80133 -0.80078,1.36133 -0.0533,0.53334 0.11953,1.0128 0.51953,1.43945 0.88,0.88 2.1083,1.61257 3.68164,2.19922 1.59998,0.56 3.33254,0.83985 5.19922,0.83985 1.89332,0 3.46739,-0.29225 4.72071,-0.87891 1.28,-0.58666 2.2389,-1.37272 2.8789,-2.35937 0.66666,-0.98669 1,-2.09366 1,-3.32032 0,-1.06665 -0.25311,-2.00078 -0.75976,-2.80078 -0.50666,-0.82666 -1.34619,-1.54681 -2.51954,-2.16015 -1.14665,-0.61332 -2.7207,-1.11954 -4.7207,-1.51954 -1.43997,-0.29334 -2.53261,-0.58751 -3.2793,-0.88085 -0.74665,-0.31998 -1.25287,-0.66573 -1.51953,-1.03907 -0.24012,-0.4 -0.36132,-0.84031 -0.36132,-1.32031 0,-0.77334 0.40117,-1.35979 1.20117,-1.75977 0.82666,-0.39999 1.82666,-0.5996 3,-0.5996 1.01331,0 1.90634,0.1195 2.67968,0.35937 0.77332,0.23998 1.4935,0.68031 2.16016,1.32031 0.4,0.37342 0.89183,0.61217 1.47852,0.71875 0.58666,0.10664 1.09482,0.014 1.52148,-0.27929 0.42663,-0.32 0.65298,-0.70682 0.67969,-1.16016 0.0267,-0.47997 -0.14622,-0.93269 -0.51953,-1.35938 -0.8,-0.98665 -1.88024,-1.76031 -3.24024,-2.32031 -1.36,-0.56 -2.91968,-0.83984 -4.67968,-0.83984 z m -221.699223,0.0137 c -0.298961,0 -0.585663,0.0266 -0.865235,0.0625 -1.697348,0.1338 -3.261784,0.5739 -4.675781,1.4043 -1.653316,0.96 -2.974254,2.28093 -3.960937,3.96094 -0.96,1.67999 -1.439453,3.57301 -1.439453,5.67968 0,2.10667 0.440325,3.99969 1.320312,5.67969 0.906671,1.65332 2.13303,2.97234 3.679688,3.95898 1.546696,0.96 3.293588,1.44141 5.240234,1.44141 1.573342,0 3.026033,-0.32087 4.359375,-0.96094 1.333342,-0.66667 2.454657,-1.5597 3.361328,-2.67968 v 10.79882 c 0,0.5867 0.185177,1.06799 0.558594,1.44141 0.399987,0.40006 0.908143,0.59961 1.521484,0.59961 0.586659,0 1.066112,-0.19955 1.439453,-0.59961 0.373418,-0.37342 0.561606,-0.85471 0.560547,-1.44141 l -0.0293,-17.38476 c 7.56e-4,-0.0544 0.01172,-0.10535 0.01172,-0.16016 v -9.75976 c 0,-0.58666 -0.304241,-1.06604 -0.677734,-1.43946 -0.399988,-0.40006 -0.893735,-0.60156 -1.480469,-0.60156 H 44.57031 Z m 18.900391,0.10547 c -0.586659,0 -1.080482,0.20157 -1.480469,0.60156 -0.373304,0.37334 -0.560547,0.8528 -0.560547,1.43945 v 9.83985 c 0,2.21333 0.413576,4.07963 1.240234,5.59961 0.853342,1.52001 1.999453,2.68045 3.439453,3.48047 1.466646,0.77333 3.120913,1.16015 4.960938,1.16015 h 8.839844 c 0.613304,0 1.107051,-0.38635 1.480468,-0.75976 0.373267,-0.39999 0.558594,-0.89381 0.558594,-1.48047 v -17.83985 c 0,-0.61334 -0.185176,-1.10705 -0.558594,-1.48046 -0.373341,-0.37331 -0.867164,-0.56055 -1.480468,-0.56055 -0.586696,0 -1.080444,0.18713 -1.480469,0.56055 -0.373266,0.3733 -0.560547,0.86712 -0.560547,1.48046 v 11.2793 c 0,0.96 -0.265499,1.82628 -0.798828,2.59961 -0.533329,0.77333 -1.253486,1.38649 -2.160156,1.83985 -0.879988,0.4532 -1.894345,0.68164 -3.041016,0.68164 -1.2,0 -2.280234,-0.22833 -3.240234,-0.68164 -0.959963,-0.48001 -1.719322,-1.19821 -2.279297,-2.15821 -0.559937,-0.98664 -0.839844,-2.22737 -0.839844,-3.7207 v -9.83985 c 0,-0.58665 -0.199622,-1.06603 -0.599609,-1.43945 -0.373342,-0.40006 -0.852795,-0.60156 -1.439453,-0.60156 z m 100.318362,0.041 c -0.77319,1e-5 -1.27941,0.26552 -1.51953,0.79883 -0.21342,0.50666 -0.21342,1.17332 0,2 l 5.91992,17.75977 c 0.13334,0.37334 0.37404,0.69428 0.7207,0.96094 0.37334,0.24012 0.77256,0.35937 1.19922,0.35937 0.45332,0 0.85253,-0.11925 1.19922,-0.35937 0.37339,-0.26666 0.61412,-0.5876 0.7207,-0.96094 l 4.11524,-14.51563 3.92382,14.51563 c 0.10669,0.37334 0.34739,0.69428 0.72071,0.96094 0.37334,0.24012 0.77256,0.35937 1.19922,0.35937 0.45334,0 0.85451,-0.11925 1.20117,-0.35937 0.34676,-0.26666 0.5731,-0.5876 0.67968,-0.96094 l 5.91993,-17.75977 c 0.29336,-0.82668 0.30767,-1.49334 0.041,-2 -0.26666,-0.53331 -0.7748,-0.79883 -1.52148,-0.79883 -1.01332,1e-5 -1.70674,0.61319 -2.08008,1.83985 l -4.38672,13.75781 -3.61328,-14.07812 c -0.10666,-0.45335 -0.33303,-0.81342 -0.67969,-1.08008 -0.32,-0.29332 -0.74595,-0.43946 -1.27929,-0.43946 -0.56,0 -1.00032,0.14614 -1.32032,0.43946 -0.32002,0.26666 -0.54639,0.62673 -0.67968,1.08008 l -4.08594,13.80664 -4.31446,-13.48633 c -0.21331,-0.66668 -0.49318,-1.13373 -0.83984,-1.40039 -0.32,-0.29332 -0.73355,-0.43946 -1.24023,-0.43946 z m -119.119144,3.43946 c 1.359988,0 2.572014,0.33337 3.638672,1 1.066696,0.63999 1.908143,1.53497 2.521484,2.68164 0.613304,1.11999 0.919922,2.39984 0.919922,3.83984 0,1.41332 -0.306542,2.69318 -0.919922,3.83985 -0.613341,1.11998 -1.454826,2.01301 -2.521484,2.67968 -1.066696,0.63988 -2.278684,0.95899 -3.638672,0.95899 -1.333304,0 -2.547283,-0.319 -3.640625,-0.95899 -1.066658,-0.66667 -1.920559,-1.5597 -2.560547,-2.67968 -0.613341,-1.14667 -0.919922,-2.42653 -0.919922,-3.83985 0,-1.44 0.306506,-2.71985 0.919922,-3.83984 0.639988,-1.14667 1.493889,-2.04165 2.560547,-2.68164 1.093342,-0.66663 2.307321,-1 3.640625,-1 z m 53.400391,0 c 1.360025,0 2.572013,0.33333 3.638673,1 1.06669,0.63999 1.90818,1.53301 2.52148,2.67969 0.6135,1.11998 0.91993,2.39984 0.91993,3.83984 -1e-5,1.41332 -0.30659,2.69317 -0.91993,3.83984 -0.6133,1.11999 -1.45479,2.01497 -2.52148,2.68164 -1.06666,0.63988 -2.278648,0.95899 -3.638673,0.95899 -1.333304,0 -2.547283,-0.319 -3.640625,-0.95899 -1.066658,-0.66667 -1.920522,-1.56165 -2.560547,-2.68164 -0.613455,-1.14667 -0.919922,-2.42652 -0.919922,-3.83984 0,-1.44 0.306618,-2.71986 0.919922,-3.83984 0.640025,-1.14668 1.493889,-2.0397 2.560547,-2.67969 1.093342,-0.66663 2.307321,-1 3.640625,-1 z m 104.238283,0 c 1.38666,0 2.61303,0.32094 3.67969,0.96094 1.06668,0.64 1.89381,1.53302 2.48046,2.67968 0.61332,1.12 0.91993,2.41225 0.91993,3.87891 0,1.46666 -0.30661,2.76086 -0.91993,3.88086 -0.58665,1.12 -1.41378,2.00062 -2.48046,2.64062 -1.06666,0.64 -2.29303,0.95899 -3.67969,0.95899 -1.38666,0 -2.61303,-0.31899 -3.67969,-0.95899 -1.06668,-0.64 -1.90621,-1.52062 -2.51953,-2.64062 -0.61334,-1.12 -0.91992,-2.4142 -0.91992,-3.88086 0,-1.46666 0.30658,-2.75891 0.91992,-3.87891 0.61332,-1.14666 1.45285,-2.03968 2.51953,-2.67968 1.06666,-0.64 2.29303,-0.96094 3.67969,-0.96094 z"
       transform="scale(0.26458333)" />
    <path
       id="path2227"
       style="font-style:normal;font-variant:normal;font-weight:bold;font-stretch:normal;font-size:10.5833px;line-height:1.25;font-family:Comfortaa;-inkscape-font-specification:'Comfortaa Bold';letter-spacing:-0.264583px;fill:#000000;stroke-width:0.264583"
       d="m 35.042821,51.552408 c -0.155226,0 -0.28208,0.04901 -0.380854,0.147793 -0.09173,0.09172 -0.137459,0.215303 -0.137459,0.37052 v 7.228502 c 0,0.15522 0.04573,0.282074 0.137459,0.380854 0.09877,0.09172 0.225628,0.137459 0.380854,0.137459 0.155221,0 0.2788,-0.04574 0.37052,-0.137459 0.09878,-0.09878 0.148312,-0.225634 0.148312,-0.380854 v -1.617472 l 0.526582,-0.469739 2.013315,2.489253 c 0.09172,0.112879 0.204428,0.172767 0.338481,0.179835 0.141113,0.01411 0.268484,-0.02455 0.381371,-0.116274 0.119933,-0.09877 0.183102,-0.211479 0.190169,-0.338479 0.01411,-0.134054 -0.02455,-0.257628 -0.116271,-0.370523 l -2.048454,-2.520775 1.942517,-1.733743 c 0.105826,-0.09878 0.162433,-0.211482 0.169498,-0.338482 0.0071,-0.127 -0.03868,-0.243498 -0.137459,-0.349332 -0.09172,-0.10582 -0.204944,-0.162433 -0.338998,-0.1695 -0.127,-0.0071 -0.243498,0.03869 -0.349332,0.137459 l -2.571419,2.295467 v -4.306197 c 0,-0.155217 -0.04953,-0.278799 -0.148312,-0.37052 -0.09172,-0.09878 -0.215299,-0.147793 -0.37052,-0.147793 z m 27.58023,0 c -0.15522,0 -0.282075,0.04901 -0.380857,0.147793 -0.09172,0.09172 -0.137975,0.215303 -0.137975,0.37052 v 7.228502 c 0,0.15522 0.04626,0.282074 0.137975,0.380854 0.09878,0.09172 0.225637,0.137459 0.380857,0.137459 0.155226,0 0.278799,-0.04574 0.37052,-0.137459 0.09877,-0.09878 0.147793,-0.225634 0.147793,-0.380854 v -1.617472 l 0.526585,-0.469739 2.013828,2.489253 c 0.09172,0.112879 0.204428,0.172767 0.338482,0.179835 0.141112,0.01411 0.26797,-0.02455 0.380854,-0.116274 0.119936,-0.09877 0.183621,-0.211479 0.190688,-0.338479 0.01411,-0.134054 -0.02455,-0.257628 -0.116274,-0.370523 l -2.048452,-2.521291 1.942516,-1.733227 c 0.10582,-0.09878 0.161917,-0.211482 0.168984,-0.338482 0.0071,-0.127 -0.03868,-0.243498 -0.137462,-0.349332 -0.09172,-0.10582 -0.20442,-0.162433 -0.338479,-0.1695 -0.126994,-0.0071 -0.243501,0.03869 -0.349334,0.137459 l -2.571936,2.295986 v -4.306716 c 0,-0.155217 -0.04902,-0.278799 -0.147793,-0.37052 -0.09172,-0.09878 -0.215294,-0.147793 -0.37052,-0.147793 z M 32.481737,53.96518 c -0.423334,0 -0.811488,0.09855 -1.16427,0.296106 -0.237424,0.132958 -0.439889,0.300768 -0.613397,0.497644 v -0.201022 c 0,-0.176385 -0.04626,-0.307039 -0.137978,-0.391705 -0.08467,-0.09172 -0.214796,-0.137462 -0.391189,-0.137462 -0.169328,0 -0.299982,0.04574 -0.391707,0.137462 -0.09172,0.09172 -0.137459,0.222374 -0.137459,0.391705 v 4.730461 c 0,0.176393 0.04574,0.310841 0.137459,0.402561 0.09173,0.08467 0.222379,0.126606 0.391707,0.126606 0.176393,0 0.306523,-0.04574 0.391189,-0.137459 0.09172,-0.09173 0.137978,-0.222374 0.137978,-0.391708 v -3.090251 c 0,-0.324551 0.102343,-0.592418 0.306956,-0.804085 0.211667,-0.211666 0.496962,-0.356475 0.856795,-0.43408 0.359828,-0.07759 0.765945,-0.07053 1.217499,0.02119 0.09173,0.0212 0.176122,0.02447 0.25373,0.01034 0.07759,-0.01407 0.144555,-0.04568 0.20102,-0.09509 0.06347,-0.05645 0.105926,-0.133762 0.127124,-0.232542 0.04939,-0.1905 -0.03173,-0.35274 -0.243395,-0.486794 -0.204613,-0.141105 -0.518734,-0.211873 -0.942062,-0.211873 z m 27.580229,0 c -0.423333,0 -0.811495,0.09855 -1.164269,0.296106 -0.23743,0.132958 -0.440407,0.300768 -0.613916,0.497644 v -0.201022 c 0,-0.176385 -0.04573,-0.307039 -0.137461,-0.391705 -0.08466,-0.09172 -0.215321,-0.137462 -0.391705,-0.137462 -0.169334,0 -0.299988,0.04574 -0.391708,0.137462 -0.09173,0.09172 -0.137459,0.222374 -0.137459,0.391705 v 4.730461 c 0,0.176393 0.04573,0.310841 0.137459,0.402561 0.09172,0.08467 0.222374,0.126606 0.391708,0.126606 0.176384,0 0.307038,-0.04574 0.391705,-0.137459 0.09173,-0.09173 0.137461,-0.222374 0.137461,-0.391708 v -3.090251 c 0,-0.324551 0.102352,-0.592418 0.306957,-0.804085 0.211666,-0.211666 0.49748,-0.356475 0.857313,-0.43408 0.359833,-0.07759 0.765426,-0.07053 1.21698,0.02119 0.09172,0.0212 0.176633,0.02447 0.254246,0.01034 0.07759,-0.01407 0.144555,-0.04568 0.201023,-0.09509 0.06347,-0.05645 0.105923,-0.133762 0.127124,-0.232542 0.04939,-0.1905 -0.03173,-0.35274 -0.243395,-0.486794 -0.204608,-0.141105 -0.518729,-0.211873 -0.942063,-0.211873 z m -34.670751,0.02119 c -0.55033,0 -1.047916,0.130657 -1.492416,0.391708 -0.43744,0.254 -0.786421,0.60298 -1.047481,1.04748 -0.254,0.4445 -0.381372,0.945361 -0.381372,1.502751 0,0.55739 0.116503,1.058767 0.349333,1.503267 0.23989,0.437441 0.564364,0.786432 0.973584,1.047481 0.40922,0.254 0.871418,0.380857 1.386478,0.380857 h 2.582271 c 0.155231,0 0.282057,-0.08103 0.380855,-0.179835 0.105852,-0.105831 0.159165,-0.236477 0.159165,-0.391708 v -2.360062 c 0,-0.55739 -0.130659,-1.058251 -0.391708,-1.502751 -0.254,-0.4445 -0.599707,-0.79348 -1.037145,-1.04748 -0.437452,-0.261051 -0.931225,-0.391708 -1.481564,-0.391708 z m 27.579712,0 c -0.5715,0 -1.075648,0.126855 -1.513086,0.380855 -0.437446,0.246946 -0.783154,0.592653 -1.037146,1.037145 -0.246949,0.437449 -0.37052,0.945385 -0.37052,1.523939 0,0.5715 0.123571,1.079445 0.37052,1.523939 0.253992,0.437447 0.5997,0.783662 1.037146,1.037662 0.437438,0.246941 0.941586,0.370004 1.513086,0.370004 0.5715,0 1.076161,-0.123063 1.513602,-0.370004 0.437446,-0.254 0.779354,-0.600215 1.026295,-1.037662 0.246946,-0.444494 0.370519,-0.952439 0.370519,-1.523939 0,-0.578554 -0.126857,-1.08649 -0.380857,-1.523939 -0.246946,-0.444492 -0.58937,-0.790199 -1.026808,-1.037145 -0.437449,-0.254 -0.938313,-0.380855 -1.502751,-0.380855 z m 16.922998,0 c -0.359833,0 -0.70554,0.05989 -1.037148,0.179835 -0.331613,0.112884 -0.603268,0.289279 -0.814935,0.529166 -0.211661,0.232834 -0.317812,0.529 -0.317812,0.888834 0,0.40922 0.158964,0.754925 0.476456,1.037145 0.324562,0.282229 0.842854,0.493998 1.555462,0.635103 0.550333,0.09878 0.928139,0.226153 1.132747,0.381373 0.21168,0.155221 0.314026,0.33817 0.306959,0.549839 -0.0071,0.211664 -0.120277,0.384776 -0.338997,0.518829 -0.211667,0.134062 -0.521991,0.201023 -0.931209,0.201023 -0.324554,0 -0.620723,-0.0566 -0.888836,-0.1695 -0.261054,-0.119938 -0.451602,-0.246796 -0.571543,-0.380855 -0.09878,-0.105806 -0.219069,-0.1657 -0.360182,-0.179834 -0.134054,-0.02117 -0.271272,0.02457 -0.41238,0.137459 -0.119912,0.09172 -0.190672,0.212018 -0.211873,0.360185 -0.01411,0.141113 0.03163,0.26797 0.137459,0.380854 0.232834,0.232834 0.557821,0.42666 0.974101,0.581877 0.423328,0.148167 0.881734,0.222211 1.375627,0.222211 0.500941,0 0.917413,-0.07733 1.249021,-0.232545 0.338667,-0.155221 0.592376,-0.363199 0.761709,-0.62425 0.176387,-0.261062 0.264583,-0.553948 0.264583,-0.878502 0,-0.282217 -0.06697,-0.529373 -0.20102,-0.741039 -0.134053,-0.218721 -0.356179,-0.40926 -0.666628,-0.57154 -0.303384,-0.162274 -0.719852,-0.296212 -1.249018,-0.402045 -0.380993,-0.07761 -0.670087,-0.155445 -0.867649,-0.233058 -0.197551,-0.08466 -0.331488,-0.176141 -0.402042,-0.274921 -0.06353,-0.105833 -0.0956,-0.222332 -0.0956,-0.349332 0,-0.204613 0.106143,-0.359777 0.317809,-0.465606 0.218721,-0.10583 0.483304,-0.158644 0.79375,-0.158644 0.268105,0 0.504386,0.03162 0.708999,0.09508 0.204608,0.06349 0.395155,0.179998 0.571542,0.349332 0.105834,0.0988 0.235964,0.16197 0.391192,0.190169 0.155221,0.02821 0.289671,0.0037 0.402558,-0.0739 0.11288,-0.08467 0.172768,-0.187012 0.179835,-0.306959 0.0071,-0.126992 -0.03869,-0.246774 -0.137459,-0.359669 -0.211667,-0.261051 -0.49748,-0.465749 -0.857313,-0.613915 -0.359834,-0.148167 -0.772499,-0.222208 -1.238166,-0.222208 z m -58.657918,0.0036 c -0.0791,0 -0.154957,0.007 -0.228927,0.01654 -0.44909,0.0354 -0.863014,0.151845 -1.2371339,0.371555 -0.4374399,0.254 -0.786938,0.603496 -1.0479979,1.047999 -0.254,0.444497 -0.3808553,0.945358 -0.3808553,1.502748 0,0.55739 0.1165027,1.058251 0.3493326,1.502751 0.23989,0.437441 0.5643641,0.786432 0.9735841,1.047481 0.4092304,0.254 0.8714284,0.381373 1.3864784,0.381373 0.41628,0 0.800638,-0.0849 1.153418,-0.254249 0.35278,-0.17639 0.649461,-0.412671 0.889351,-0.708999 v 2.857188 c 0,0.155231 0.04899,0.282572 0.147795,0.381373 0.10583,0.105849 0.24028,0.158647 0.402559,0.158647 0.155221,0 0.282076,-0.0528 0.380856,-0.158647 0.0988,-0.0988 0.148591,-0.226142 0.148311,-0.381373 l -0.0078,-4.599718 c 2e-4,-0.0144 0.0031,-0.02787 0.0031,-0.04237 v -2.58227 c 0,-0.155221 -0.0805,-0.282057 -0.179317,-0.380857 -0.10583,-0.105849 -0.236467,-0.159163 -0.391707,-0.159163 h -2.333708 z m 5.000728,0.02791 c -0.15522,0 -0.285878,0.05333 -0.391707,0.159162 -0.09877,0.09878 -0.148312,0.225637 -0.148312,0.380855 v 2.60346 c 0,0.58561 0.109425,1.079402 0.328145,1.481564 0.22578,0.402169 0.529022,0.709202 0.910022,0.920874 0.38805,0.20461 0.825742,0.306956 1.312582,0.306956 h 2.338875 c 0.16227,0 0.292907,-0.102222 0.391707,-0.20102 0.09876,-0.10583 0.147795,-0.236487 0.147795,-0.391707 v -4.720127 c 0,-0.16228 -0.04899,-0.292907 -0.147795,-0.391705 -0.09878,-0.09877 -0.229437,-0.148312 -0.391707,-0.148312 -0.15523,0 -0.285867,0.04951 -0.391707,0.148312 -0.09876,0.09877 -0.148312,0.229425 -0.148312,0.391705 v 2.984315 c 0,0.254 -0.07025,0.483203 -0.211356,0.687813 -0.14111,0.20461 -0.331652,0.366842 -0.571541,0.486794 -0.232831,0.119909 -0.501213,0.18035 -0.804603,0.18035 -0.3175,0 -0.603312,-0.06041 -0.857312,-0.18035 -0.25399,-0.127003 -0.454903,-0.317027 -0.603064,-0.571027 -0.14815,-0.261048 -0.222208,-0.589325 -0.222208,-0.984435 v -2.60346 c 0,-0.155218 -0.05282,-0.282054 -0.158647,-0.380855 -0.09878,-0.105849 -0.225635,-0.159162 -0.380855,-0.159162 z m 26.542566,0.01085 c -0.204573,3e-6 -0.33851,0.07025 -0.402042,0.211357 -0.05647,0.134054 -0.05647,0.310441 0,0.529167 l 1.566312,4.698939 c 0.03528,0.09878 0.09896,0.183695 0.190685,0.254249 0.09878,0.06353 0.204407,0.09508 0.317294,0.09508 0.119941,0 0.225565,-0.03155 0.317294,-0.09508 0.09879,-0.07055 0.162485,-0.155469 0.190685,-0.254249 l 1.088824,-3.840594 1.038177,3.840594 c 0.02823,0.09878 0.09191,0.183695 0.190688,0.254249 0.09878,0.06353 0.204406,0.09508 0.317293,0.09508 0.119947,0 0.22609,-0.03155 0.31781,-0.09508 0.09175,-0.07055 0.151633,-0.155469 0.179832,-0.254249 l 1.566315,-4.698939 c 0.07762,-0.218726 0.0814,-0.395113 0.01085,-0.529167 -0.07055,-0.141105 -0.204999,-0.211357 -0.402558,-0.211357 -0.268107,3e-6 -0.451575,0.16224 -0.550354,0.486794 l -1.160653,3.640087 -0.956014,-3.724836 c -0.02822,-0.119949 -0.08811,-0.215217 -0.179835,-0.285771 -0.08467,-0.07761 -0.197366,-0.116274 -0.338478,-0.116274 -0.148167,0 -0.264668,0.03867 -0.349335,0.116274 -0.08467,0.07055 -0.144566,0.165822 -0.179832,0.285771 l -1.081072,3.653007 -1.141534,-3.568258 c -0.05644,-0.176393 -0.130487,-0.299966 -0.222208,-0.37052 -0.08467,-0.07761 -0.194085,-0.116274 -0.328144,-0.116274 z m -31.51694,0.910024 c 0.359831,0 0.680512,0.0882 0.962732,0.264583 0.28223,0.169331 0.504863,0.406128 0.667143,0.709517 0.16227,0.296331 0.243396,0.634958 0.243396,1.015958 0,0.373941 -0.08111,0.712571 -0.243396,1.01596 -0.16228,0.296328 -0.384923,0.532609 -0.667143,0.708999 -0.28223,0.169302 -0.602901,0.253733 -0.962732,0.253733 -0.35277,0 -0.673968,-0.0844 -0.963248,-0.253733 -0.28222,-0.17639 -0.5081481,-0.412671 -0.6774783,-0.708999 -0.1622798,-0.303389 -0.243396,-0.642019 -0.243396,-1.01596 0,-0.381 0.081096,-0.719627 0.243396,-1.015958 0.1693302,-0.303389 0.3952583,-0.540186 0.6774783,-0.709517 0.28928,-0.176379 0.610478,-0.264583 0.963248,-0.264583 z m 14.128854,0 c 0.35984,0 0.680511,0.08819 0.962732,0.264583 0.282228,0.169331 0.504873,0.405609 0.667142,0.709002 0.162321,0.296328 0.243398,0.634957 0.243398,1.015957 -3e-6,0.373941 -0.08112,0.712568 -0.243398,1.015958 -0.162269,0.296331 -0.384914,0.533127 -0.667142,0.709517 -0.282221,0.169302 -0.602892,0.253733 -0.962732,0.253733 -0.35277,0 -0.673969,-0.0844 -0.963249,-0.253733 -0.28222,-0.17639 -0.508138,-0.413186 -0.677478,-0.709517 -0.16231,-0.30339 -0.243396,-0.642017 -0.243396,-1.015958 0,-0.381 0.08113,-0.719629 0.243396,-1.015957 0.16934,-0.303393 0.395258,-0.539671 0.677478,-0.709002 0.28928,-0.176379 0.610479,-0.264583 0.963249,-0.264583 z m 27.579712,0 c 0.366887,0 0.691364,0.08492 0.973584,0.254249 0.282226,0.169333 0.501071,0.405611 0.656289,0.708998 0.162274,0.296334 0.243398,0.638241 0.243398,1.026295 0,0.388054 -0.08112,0.730478 -0.243398,1.026811 -0.155218,0.296333 -0.374063,0.529331 -0.656289,0.698664 -0.28222,0.169333 -0.606697,0.253733 -0.973584,0.253733 -0.366887,0 -0.691364,-0.0844 -0.973585,-0.253733 -0.282226,-0.169333 -0.504351,-0.402331 -0.666626,-0.698664 -0.162279,-0.296333 -0.243395,-0.638757 -0.243395,-1.026811 0,-0.388054 0.08112,-0.729961 0.243395,-1.026295 0.162275,-0.303387 0.3844,-0.539665 0.666626,-0.708998 0.282221,-0.169334 0.606698,-0.254249 0.973585,-0.254249 z" />
    <path
       id="path2229"
       style="font-style:normal;font-variant:normal;font-weight:bold;font-stretch:normal;font-size:10.5833px;line-height:1.25;font-family:Comfortaa;-inkscape-font-specification:'Comfortaa Bold';letter-spacing:-0.264583px;fill:#ffffff;stroke-width:0.264583"
       d="m 34.513654,51.023241 c -0.155226,0 -0.28208,0.04901 -0.380854,0.147793 -0.09173,0.09172 -0.137459,0.215303 -0.137459,0.37052 v 7.228502 c 0,0.15522 0.04573,0.282074 0.137459,0.380854 0.09877,0.09172 0.225628,0.137459 0.380854,0.137459 0.155221,0 0.2788,-0.04574 0.37052,-0.137459 0.09878,-0.09878 0.148312,-0.225634 0.148312,-0.380854 v -1.617472 l 0.526582,-0.469739 2.013315,2.489253 c 0.09172,0.112879 0.204428,0.172767 0.338481,0.179835 0.141113,0.01411 0.268484,-0.02455 0.381371,-0.116274 0.119933,-0.09877 0.183102,-0.211479 0.190169,-0.338479 0.01411,-0.134054 -0.02455,-0.257628 -0.116271,-0.370523 l -2.048454,-2.520775 1.942517,-1.733743 c 0.105826,-0.09878 0.162433,-0.211482 0.169498,-0.338482 0.0071,-0.127 -0.03868,-0.243498 -0.137459,-0.349332 -0.09172,-0.10582 -0.204944,-0.162433 -0.338998,-0.1695 -0.127,-0.0071 -0.243498,0.03869 -0.349332,0.137459 l -2.571419,2.295467 v -4.306197 c 0,-0.155217 -0.04953,-0.278799 -0.148312,-0.37052 -0.09172,-0.09878 -0.215299,-0.147793 -0.37052,-0.147793 z m 27.58023,0 c -0.15522,0 -0.282075,0.04901 -0.380857,0.147793 -0.09172,0.09172 -0.137975,0.215303 -0.137975,0.37052 v 7.228502 c 0,0.15522 0.04626,0.282074 0.137975,0.380854 0.09878,0.09172 0.225637,0.137459 0.380857,0.137459 0.155226,0 0.278799,-0.04574 0.37052,-0.137459 0.09877,-0.09878 0.147793,-0.225634 0.147793,-0.380854 v -1.617472 l 0.526585,-0.469739 2.013828,2.489253 c 0.09172,0.112879 0.204428,0.172767 0.338482,0.179835 0.141112,0.01411 0.26797,-0.02455 0.380854,-0.116274 0.119936,-0.09877 0.183621,-0.211479 0.190688,-0.338479 0.01411,-0.134054 -0.02455,-0.257628 -0.116274,-0.370523 l -2.048452,-2.521291 1.942516,-1.733227 c 0.10582,-0.09878 0.161917,-0.211482 0.168984,-0.338482 0.0071,-0.127 -0.03868,-0.243498 -0.137462,-0.349332 -0.09172,-0.10582 -0.20442,-0.162433 -0.338479,-0.1695 -0.126994,-0.0071 -0.243501,0.03869 -0.349334,0.137459 l -2.571936,2.295986 v -4.306716 c 0,-0.155217 -0.04902,-0.278799 -0.147793,-0.37052 -0.09172,-0.09878 -0.215294,-0.147793 -0.37052,-0.147793 z M 31.95257,53.436013 c -0.423334,0 -0.811488,0.09855 -1.16427,0.296106 -0.237424,0.132958 -0.439889,0.300768 -0.613397,0.497644 v -0.201022 c 0,-0.176385 -0.04626,-0.307039 -0.137978,-0.391705 -0.08467,-0.09172 -0.214796,-0.137462 -0.391189,-0.137462 -0.169328,0 -0.299982,0.04574 -0.391707,0.137462 -0.09172,0.09172 -0.137459,0.222374 -0.137459,0.391705 v 4.730461 c 0,0.176393 0.04574,0.310841 0.137459,0.402561 0.09173,0.08467 0.222379,0.126606 0.391707,0.126606 0.176393,0 0.306523,-0.04574 0.391189,-0.137459 0.09172,-0.09173 0.137978,-0.222374 0.137978,-0.391708 v -3.090251 c 0,-0.324551 0.102343,-0.592418 0.306956,-0.804085 0.211667,-0.211666 0.496962,-0.356475 0.856795,-0.43408 0.359828,-0.07759 0.765945,-0.07053 1.217499,0.02119 0.09173,0.0212 0.176122,0.02447 0.25373,0.01034 0.07759,-0.01407 0.144555,-0.04568 0.20102,-0.09509 0.06347,-0.05645 0.105926,-0.133762 0.127124,-0.232542 0.04939,-0.1905 -0.03173,-0.35274 -0.243395,-0.486794 -0.204613,-0.141105 -0.518734,-0.211873 -0.942062,-0.211873 z m 27.580229,0 c -0.423333,0 -0.811495,0.09855 -1.164269,0.296106 -0.23743,0.132958 -0.440407,0.300768 -0.613916,0.497644 v -0.201022 c 0,-0.176385 -0.04573,-0.307039 -0.137461,-0.391705 -0.08466,-0.09172 -0.215321,-0.137462 -0.391705,-0.137462 -0.169334,0 -0.299988,0.04574 -0.391708,0.137462 -0.09173,0.09172 -0.137459,0.222374 -0.137459,0.391705 v 4.730461 c 0,0.176393 0.04573,0.310841 0.137459,0.402561 0.09172,0.08467 0.222374,0.126606 0.391708,0.126606 0.176384,0 0.307038,-0.04574 0.391705,-0.137459 0.09173,-0.09173 0.137461,-0.222374 0.137461,-0.391708 v -3.090251 c 0,-0.324551 0.102352,-0.592418 0.306957,-0.804085 0.211666,-0.211666 0.49748,-0.356475 0.857313,-0.43408 0.359833,-0.07759 0.765426,-0.07053 1.21698,0.02119 0.09172,0.0212 0.176633,0.02447 0.254246,0.01034 0.07759,-0.01407 0.144555,-0.04568 0.201023,-0.09509 0.06347,-0.05645 0.105923,-0.133762 0.127124,-0.232542 0.04939,-0.1905 -0.03173,-0.35274 -0.243395,-0.486794 -0.204608,-0.141105 -0.518729,-0.211873 -0.942063,-0.211873 z m -34.670751,0.02119 c -0.55033,0 -1.047916,0.130657 -1.492416,0.391708 -0.43744,0.254 -0.786421,0.60298 -1.047481,1.04748 -0.254,0.4445 -0.381372,0.945361 -0.381372,1.502751 0,0.55739 0.116503,1.058767 0.349333,1.503267 0.23989,0.437441 0.564364,0.786432 0.973584,1.047481 0.40922,0.254 0.871418,0.380857 1.386478,0.380857 h 2.582271 c 0.155231,0 0.282057,-0.08103 0.380855,-0.179835 0.105852,-0.105831 0.159165,-0.236477 0.159165,-0.391708 v -2.360062 c 0,-0.55739 -0.130659,-1.058251 -0.391708,-1.502751 -0.254,-0.4445 -0.599707,-0.79348 -1.037145,-1.04748 -0.437452,-0.261051 -0.931225,-0.391708 -1.481564,-0.391708 z m 27.579712,0 c -0.5715,0 -1.075648,0.126855 -1.513086,0.380855 -0.437446,0.246946 -0.783154,0.592653 -1.037146,1.037145 -0.246949,0.437449 -0.37052,0.945385 -0.37052,1.523939 0,0.5715 0.123571,1.079445 0.37052,1.523939 0.253992,0.437447 0.5997,0.783662 1.037146,1.037662 0.437438,0.246941 0.941586,0.370004 1.513086,0.370004 0.5715,0 1.076161,-0.123063 1.513602,-0.370004 0.437446,-0.254 0.779354,-0.600215 1.026295,-1.037662 0.246946,-0.444494 0.370519,-0.952439 0.370519,-1.523939 0,-0.578554 -0.126857,-1.08649 -0.380857,-1.523939 -0.246946,-0.444492 -0.58937,-0.790199 -1.026808,-1.037145 -0.437449,-0.254 -0.938313,-0.380855 -1.502751,-0.380855 z m 16.922998,0 c -0.359833,0 -0.70554,0.05989 -1.037148,0.179835 -0.331613,0.112884 -0.603268,0.289279 -0.814935,0.529166 -0.211661,0.232834 -0.317812,0.529 -0.317812,0.888834 0,0.40922 0.158964,0.754925 0.476456,1.037145 0.324562,0.282229 0.842854,0.493998 1.555462,0.635103 0.550333,0.09878 0.928139,0.226153 1.132747,0.381373 0.21168,0.155221 0.314026,0.33817 0.306959,0.549839 -0.0071,0.211664 -0.120277,0.384776 -0.338997,0.518829 -0.211667,0.134062 -0.521991,0.201023 -0.931209,0.201023 -0.324554,0 -0.620723,-0.0566 -0.888836,-0.1695 -0.261054,-0.119938 -0.451602,-0.246796 -0.571543,-0.380855 -0.09878,-0.105806 -0.219069,-0.1657 -0.360182,-0.179834 -0.134054,-0.02117 -0.271272,0.02457 -0.41238,0.137459 -0.119912,0.09172 -0.190672,0.212018 -0.211873,0.360185 -0.01411,0.141113 0.03163,0.26797 0.137459,0.380854 0.232834,0.232834 0.557821,0.42666 0.974101,0.581877 0.423328,0.148167 0.881734,0.222211 1.375627,0.222211 0.500941,0 0.917413,-0.07733 1.249021,-0.232545 0.338667,-0.155221 0.592376,-0.363199 0.761709,-0.62425 0.176387,-0.261062 0.264583,-0.553948 0.264583,-0.878502 0,-0.282217 -0.06697,-0.529373 -0.20102,-0.741039 -0.134053,-0.218721 -0.356179,-0.40926 -0.666628,-0.57154 -0.303384,-0.162274 -0.719852,-0.296212 -1.249018,-0.402045 -0.380993,-0.07761 -0.670087,-0.155445 -0.867649,-0.233058 -0.197551,-0.08466 -0.331488,-0.176141 -0.402042,-0.274921 -0.06353,-0.105833 -0.0956,-0.222332 -0.0956,-0.349332 0,-0.204613 0.106143,-0.359777 0.317809,-0.465606 0.218721,-0.10583 0.483304,-0.158644 0.79375,-0.158644 0.268105,0 0.504386,0.03162 0.708999,0.09508 0.204608,0.06349 0.395155,0.179998 0.571542,0.349332 0.105834,0.0988 0.235964,0.16197 0.391192,0.190169 0.155221,0.02821 0.289671,0.0037 0.402558,-0.0739 0.11288,-0.08467 0.172768,-0.187012 0.179835,-0.306959 0.0071,-0.126992 -0.03869,-0.246774 -0.137459,-0.359669 -0.211667,-0.261051 -0.49748,-0.465749 -0.857313,-0.613915 -0.359834,-0.148167 -0.772499,-0.222208 -1.238166,-0.222208 z m -58.657918,0.0036 c -0.0791,0 -0.154957,0.007 -0.228927,0.01654 -0.44909,0.0354 -0.8630137,0.151845 -1.2371336,0.371555 -0.4374399,0.254 -0.786938,0.603496 -1.0479979,1.047999 -0.254,0.444497 -0.3808553,0.945358 -0.3808553,1.502748 0,0.55739 0.1165027,1.058251 0.3493326,1.502751 0.23989,0.437441 0.5643641,0.786432 0.9735841,1.047481 0.4092304,0.254 0.8714281,0.381373 1.3864781,0.381373 0.41628,0 0.800638,-0.0849 1.153418,-0.254249 0.35278,-0.17639 0.649461,-0.412671 0.889351,-0.708999 v 2.857188 c 0,0.155231 0.04899,0.282572 0.147795,0.381373 0.10583,0.105849 0.24028,0.158647 0.402559,0.158647 0.155221,0 0.282076,-0.0528 0.380856,-0.158647 0.0988,-0.0988 0.148591,-0.226142 0.148311,-0.381373 l -0.0078,-4.599718 c 2e-4,-0.0144 0.0031,-0.02787 0.0031,-0.04237 v -2.58227 c 0,-0.155221 -0.0805,-0.282057 -0.179317,-0.380857 -0.10583,-0.105849 -0.236467,-0.159163 -0.391707,-0.159163 h -2.333708 z m 5.000728,0.02791 c -0.15522,0 -0.285878,0.05333 -0.391707,0.159162 -0.09877,0.09878 -0.148312,0.225637 -0.148312,0.380855 v 2.60346 c 0,0.58561 0.109425,1.079402 0.328145,1.481564 0.22578,0.402169 0.529022,0.709202 0.910022,0.920874 0.38805,0.20461 0.825742,0.306956 1.312582,0.306956 h 2.338875 c 0.16227,0 0.292907,-0.102222 0.391707,-0.20102 0.09876,-0.10583 0.147795,-0.236487 0.147795,-0.391707 V 54.02873 c 0,-0.16228 -0.04899,-0.292907 -0.147795,-0.391705 -0.09878,-0.09877 -0.229437,-0.148312 -0.391707,-0.148312 -0.15523,0 -0.285867,0.04951 -0.391707,0.148312 -0.09876,0.09877 -0.148312,0.229425 -0.148312,0.391705 v 2.984315 c 0,0.254 -0.07025,0.483203 -0.211356,0.687813 -0.14111,0.20461 -0.331652,0.366842 -0.571541,0.486794 -0.232831,0.119909 -0.501213,0.18035 -0.804603,0.18035 -0.3175,0 -0.603312,-0.06041 -0.857312,-0.18035 -0.25399,-0.127003 -0.454903,-0.317027 -0.603064,-0.571027 C 16.321128,57.355577 16.24707,57.0273 16.24707,56.63219 v -2.60346 c 0,-0.155218 -0.05282,-0.282054 -0.158647,-0.380855 -0.09878,-0.105849 -0.225635,-0.159162 -0.380855,-0.159162 z m 26.542566,0.01085 c -0.204573,3e-6 -0.33851,0.07025 -0.402042,0.211357 -0.05647,0.134054 -0.05647,0.310441 0,0.529167 l 1.566312,4.698939 c 0.03528,0.09878 0.09896,0.183695 0.190685,0.254249 0.09878,0.06353 0.204407,0.09508 0.317294,0.09508 0.119941,0 0.225565,-0.03155 0.317294,-0.09508 0.09879,-0.07055 0.162485,-0.155469 0.190685,-0.254249 l 1.088824,-3.840594 1.038177,3.840594 c 0.02823,0.09878 0.09191,0.183695 0.190688,0.254249 0.09878,0.06353 0.204406,0.09508 0.317293,0.09508 0.119947,0 0.22609,-0.03155 0.31781,-0.09508 0.09175,-0.07055 0.151633,-0.155469 0.179832,-0.254249 l 1.566315,-4.698939 c 0.07762,-0.218726 0.0814,-0.395113 0.01085,-0.529167 -0.07055,-0.141105 -0.204999,-0.211357 -0.402558,-0.211357 -0.268107,3e-6 -0.451575,0.16224 -0.550354,0.486794 l -1.160653,3.640087 -0.956014,-3.724836 c -0.02822,-0.119949 -0.08811,-0.215217 -0.179835,-0.285771 -0.08467,-0.07761 -0.197366,-0.116274 -0.338478,-0.116274 -0.148167,0 -0.264668,0.03867 -0.349335,0.116274 -0.08467,0.07055 -0.144566,0.165822 -0.179832,0.285771 l -1.081072,3.653007 -1.141534,-3.568258 c -0.05644,-0.176393 -0.130487,-0.299966 -0.222208,-0.37052 -0.08467,-0.07761 -0.194085,-0.116274 -0.328144,-0.116274 z m -31.51694,0.910024 c 0.359831,0 0.680512,0.0882 0.962732,0.264583 0.28223,0.169331 0.504863,0.406128 0.667143,0.709517 0.16227,0.296331 0.243396,0.634958 0.243396,1.015958 0,0.373941 -0.08111,0.712571 -0.243396,1.01596 -0.16228,0.296328 -0.384923,0.532609 -0.667143,0.708999 -0.28223,0.169302 -0.602901,0.253733 -0.962732,0.253733 -0.35277,0 -0.673968,-0.0844 -0.9632477,-0.253733 -0.28222,-0.17639 -0.5081481,-0.412671 -0.6774783,-0.708999 -0.1622798,-0.303389 -0.243396,-0.642019 -0.243396,-1.01596 0,-0.381 0.081096,-0.719627 0.243396,-1.015958 0.1693302,-0.303389 0.3952583,-0.540186 0.6774783,-0.709517 0.2892797,-0.176379 0.6104777,-0.264583 0.9632477,-0.264583 z m 14.128854,0 c 0.35984,0 0.680511,0.08819 0.962732,0.264583 0.282228,0.169331 0.504873,0.405609 0.667142,0.709002 0.162321,0.296328 0.243398,0.634957 0.243398,1.015957 -3e-6,0.373941 -0.08112,0.712568 -0.243398,1.015958 -0.162269,0.296331 -0.384914,0.533127 -0.667142,0.709517 -0.282221,0.169302 -0.602892,0.253733 -0.962732,0.253733 -0.35277,0 -0.673969,-0.0844 -0.963249,-0.253733 -0.28222,-0.17639 -0.508138,-0.413186 -0.677478,-0.709517 -0.16231,-0.30339 -0.243396,-0.642017 -0.243396,-1.015958 0,-0.381 0.08113,-0.719629 0.243396,-1.015957 0.16934,-0.303393 0.395258,-0.539671 0.677478,-0.709002 0.28928,-0.176379 0.610479,-0.264583 0.963249,-0.264583 z m 27.579712,0 c 0.366887,0 0.691364,0.08492 0.973584,0.254249 0.282226,0.169333 0.501071,0.405611 0.656289,0.708998 0.162274,0.296334 0.243398,0.638241 0.243398,1.026295 0,0.388054 -0.08112,0.730478 -0.243398,1.026811 -0.155218,0.296333 -0.374063,0.529331 -0.656289,0.698664 -0.28222,0.169333 -0.606697,0.253733 -0.973584,0.253733 -0.366887,0 -0.691364,-0.0844 -0.973585,-0.253733 -0.282226,-0.169333 -0.504351,-0.402331 -0.666626,-0.698664 -0.162279,-0.296333 -0.243395,-0.638757 -0.243395,-1.026811 0,-0.388054 0.08112,-0.729961 0.243395,-1.026295 0.162275,-0.303387 0.3844,-0.539665 0.666626,-0.708998 0.282221,-0.169334 0.606698,-0.254249 0.973585,-0.254249 z" />
  </g>
</svg>
