<?xml version="1.0" encoding="UTF-8" standalone="no"?>
<svg
   xmlns:dc="http://purl.org/dc/elements/1.1/"
   xmlns:cc="http://creativecommons.org/ns#"
   xmlns:rdf="http://www.w3.org/1999/02/22-rdf-syntax-ns#"
   xmlns:svg="http://www.w3.org/2000/svg"
   xmlns="http://www.w3.org/2000/svg"
   xmlns:sodipodi="http://sodipodi.sourceforge.net/DTD/sodipodi-0.dtd"
   xmlns:inkscape="http://www.inkscape.org/namespaces/inkscape"
   width="112.92138mm"
   height="58.341244mm"
   viewBox="0 0 112.92138 58.341244"
   version="1.1"
   id="svg936"
   sodipodi:docname="quark works new.svg"
   inkscape:version="1.0.1 (3bc2e813f5, 2020-09-07)">
  <defs
     id="defs930" />
  <sodipodi:namedview
     id="base"
     pagecolor="#000000"
     bordercolor="#666666"
     borderopacity="1.0"
     inkscape:pageopacity="1"
     inkscape:pageshadow="2"
     inkscape:zoom="1.979899"
     inkscape:cx="51.395853"
     inkscape:cy="82.547881"
     inkscape:document-units="mm"
     inkscape:current-layer="layer1"
     inkscape:document-rotation="0"
     showgrid="false"
     inkscape:window-width="3440"
     inkscape:window-height="1369"
     inkscape:window-x="-8"
     inkscape:window-y="244"
     inkscape:window-maximized="1"
     inkscape:pagecheckerboard="true" />
  <metadata
     id="metadata933">
    <rdf:RDF>
      <cc:Work
         rdf:about="">
        <dc:format>image/svg+xml</dc:format>
        <dc:type
           rdf:resource="http://purl.org/dc/dcmitype/StillImage" />
        <dc:title></dc:title>
      </cc:Work>
    </rdf:RDF>
  </metadata>
  <g
     inkscape:label="Layer 1"
     inkscape:groupmode="layer"
     id="layer1"
     transform="translate(-44.397911,-129.9305)">
    <path
       id="path855-0"
       style="font-style:normal;font-variant:normal;font-weight:bold;font-stretch:normal;font-size:10.5833px;line-height:1.25;font-family:Comfortaa;-inkscape-font-specification:'Comfortaa Bold';letter-spacing:-0.264583px;fill:#44bba4;fill-opacity:1;stroke-width:1.48478"
       d="m 81.447538,141.66912 c -0.443782,0 -0.869556,0.0393 -1.284684,0.0927 -2.520171,0.19865 -4.843096,0.85204 -6.942582,2.08507 -2.454838,1.42539 -4.416172,3.38673 -5.881159,5.88117 -1.425401,2.49445 -2.137299,5.30519 -2.137299,8.43316 0,3.12797 0.653788,5.9387 1.960403,8.43316 1.346202,2.45483 3.167089,4.41329 5.463562,5.87826 2.296482,1.4254 4.89028,2.14018 7.780667,2.14018 2.336075,0 4.493032,-0.47645 6.472767,-1.42676 1.979736,-0.98986 3.644649,-2.31588 4.990866,-3.97883 v 16.03402 c 0,0.87117 0.27498,1.58579 0.829427,2.14024 0.593899,0.59401 1.348407,0.89025 2.259035,0.89025 0.871122,0 1.582982,-0.29631 2.137316,-0.89025 0.554448,-0.55445 0.83386,-1.26907 0.832289,-2.14024 l -0.0449,-25.81277 c 0.0011,-0.0808 0.01683,-0.15657 0.01683,-0.23794 v -14.49123 c 0,-0.87106 -0.451751,-1.58285 -1.006254,-2.1373 -0.593899,-0.59402 -1.327083,-0.89318 -2.198204,-0.89318 H 81.59931 Z m 0.147872,5.32439 c 2.019299,0 3.818895,0.49495 5.402661,1.48477 1.583767,0.95024 2.833238,2.27913 3.743922,3.98169 0.910629,1.66295 1.36586,3.56328 1.36586,5.70138 0,2.09848 -0.455118,3.99881 -1.36586,5.70137 -0.910684,1.66296 -2.160155,2.98892 -3.743922,3.97878 -1.583766,0.95008 -3.383362,1.42389 -5.402661,1.42389 -1.979713,0 -3.782195,-0.47363 -5.405579,-1.42389 -1.583767,-0.98986 -2.851599,-2.31582 -3.80187,-3.97878 -0.910668,-1.70256 -1.365888,-3.60289 -1.365888,-5.70137 0,-2.1381 0.455231,-4.03843 1.365888,-5.70138 0.950271,-1.70256 2.218103,-3.03145 3.80187,-3.98169 1.623384,-0.98982 3.425866,-1.48477 5.405579,-1.48477 z" />
    <path
       d="m 118.75909,174.37422 q -0.95025,0 -1.78176,-0.53481 -0.77207,-0.5939 -1.06904,-1.4254 l -8.78996,-26.36979 q -0.47532,-1.84119 0,-2.96961 0.53424,-1.1878 2.2569,-1.1878 1.12842,0 1.84113,0.65327 0.77208,0.59391 1.24723,2.07873 l 7.48335,23.40025 h -2.07873 l 7.06758,-23.8754 q 0.29685,-1.00967 1.00968,-1.60358 0.71269,-0.65327 1.95992,-0.65327 1.18779,0 1.9005,0.65327 0.77212,0.59391 1.00967,1.60358 l 5.76098,22.45001 h -0.89088 l 7.0082,-21.97486 q 0.8315,-2.732 3.08836,-2.732 1.66294,0 2.25685,1.1878 0.59394,1.12842 -0.0595,2.96961 l -8.78996,26.36979 q -0.23738,0.8315 -1.00962,1.4254 -0.77213,0.53481 -1.78175,0.53481 -0.95031,0 -1.78176,-0.53481 -0.8315,-0.5939 -1.06905,-1.4254 l -6.11733,-22.62818 h 0.59396 l -6.4143,22.62818 q -0.23738,0.8315 -1.06905,1.4254 -0.77207,0.53481 -1.78174,0.53481 z"
       style="font-style:normal;font-variant:normal;font-weight:bold;font-stretch:normal;font-size:10.5833px;line-height:1.25;font-family:Comfortaa;-inkscape-font-specification:'Comfortaa Bold';letter-spacing:-0.264583px;fill:#44bba4;fill-opacity:1;stroke-width:1.48478"
       id="path865-6" />
    <path
       id="path1507"
       style="font-style:normal;font-variant:normal;font-weight:bold;font-stretch:normal;font-size:10.5833px;line-height:1.25;font-family:Comfortaa;-inkscape-font-specification:'Comfortaa Bold';letter-spacing:-0.264583px;stroke-width:1.48478"
       d="m 78.477951,138.69953 c -0.443781,0 -0.869555,0.0393 -1.284683,0.0927 -2.52017,0.19866 -4.843097,0.85203 -6.942584,2.08506 -2.454837,1.42541 -4.416171,3.38673 -5.881158,5.88118 -1.4254,2.49446 -2.137298,5.30519 -2.137298,8.43315 0,3.12797 0.653787,5.93871 1.960402,8.43316 1.346201,2.45483 3.16709,4.41331 5.463562,5.87826 2.296484,1.42541 4.89028,2.14018 7.780667,2.14018 2.336075,0 4.493032,-0.47644 6.472751,-1.42674 1.979735,-0.98987 3.644649,-2.31588 4.990866,-3.97884 v 16.03402 c 0,0.87118 0.27498,1.58578 0.829426,2.14023 0.593898,0.59402 1.348407,0.89027 2.259036,0.89027 0.871122,0 1.58298,-0.29631 2.137316,-0.89027 0.554446,-0.55445 0.833858,-1.26905 0.832287,-2.14023 l -0.0449,-25.81278 c 0.0011,-0.0808 0.01683,-0.15657 0.01683,-0.23794 v -14.49121 c 0,-0.87106 -0.451751,-1.58287 -1.006255,-2.13732 -0.593898,-0.59401 -1.327082,-0.89318 -2.198202,-0.89318 H 78.629723 Z m 0.147872,5.32437 c 2.019299,0 3.818895,0.49496 5.402645,1.48477 1.583766,0.95025 2.833236,2.27913 3.743922,3.98169 0.910629,1.66296 1.365858,3.56329 1.365858,5.70139 0,2.09847 -0.455118,3.9988 -1.365858,5.70138 -0.910686,1.66294 -2.160156,2.9889 -3.743922,3.97877 -1.58375,0.95009 -3.383346,1.42388 -5.402645,1.42388 -1.979714,0 -3.782194,-0.47363 -5.405579,-1.42388 -1.583767,-0.98987 -2.851599,-2.31583 -3.80187,-3.97877 -0.910668,-1.70258 -1.365887,-3.60291 -1.365887,-5.70138 0,-2.1381 0.45523,-4.03843 1.365887,-5.70139 0.950271,-1.70256 2.218103,-3.03144 3.80187,-3.98169 1.623385,-0.98981 3.425865,-1.48477 5.405579,-1.48477 z" />
    <path
       d="m 115.78948,171.40461 q -0.95025,0 -1.78175,-0.53481 -0.77208,-0.59389 -1.06905,-1.42539 l -8.78995,-26.3698 q -0.47532,-1.84118 0,-2.96961 0.53425,-1.1878 2.25691,-1.1878 1.12842,0 1.84112,0.65327 0.77207,0.59391 1.24722,2.07873 l 7.48335,23.40026 h -2.07872 l 7.06757,-23.87541 q 0.29687,-1.00967 1.00968,-1.60358 0.7127,-0.65327 1.95993,-0.65327 1.18779,0 1.90049,0.65327 0.77213,0.59391 1.00967,1.60358 l 5.76098,22.45001 h -0.89087 l 7.0082,-21.97486 q 0.83151,-2.732 3.08835,-2.732 1.66294,0 2.25685,1.1878 0.59396,1.12843 -0.0595,2.96961 l -8.78995,26.3698 q -0.23738,0.8315 -1.00962,1.42539 -0.77213,0.53481 -1.78176,0.53481 -0.95029,0 -1.78174,-0.53481 -0.83151,-0.59389 -1.06905,-1.42539 l -6.11733,-22.62818 h 0.59395 l -6.4143,22.62818 q -0.23738,0.8315 -1.06906,1.42539 -0.77207,0.53481 -1.78174,0.53481 z"
       style="font-style:normal;font-variant:normal;font-weight:bold;font-stretch:normal;font-size:10.5833px;line-height:1.25;font-family:Comfortaa;-inkscape-font-specification:'Comfortaa Bold';letter-spacing:-0.264583px;stroke-width:1.48478"
       id="path1509" />
    <path
       id="path1511"
       style="font-style:normal;font-variant:normal;font-weight:bold;font-stretch:normal;font-size:10.5833px;line-height:1.25;font-family:Comfortaa;-inkscape-font-specification:'Comfortaa Bold';letter-spacing:-0.264583px;fill:#ffffff;stroke-width:1.48478"
       d="m 75.508365,135.72992 c -0.443782,0 -0.869556,0.0393 -1.284684,0.0927 -2.520171,0.19866 -4.843097,0.85205 -6.942582,2.08506 -2.454838,1.42541 -4.416173,3.38675 -5.88116,5.88119 -1.4254,2.49445 -2.137298,5.30519 -2.137298,8.43316 0,3.12797 0.653788,5.9387 1.960403,8.43316 1.346202,2.45482 3.167089,4.41329 5.463561,5.87826 2.296484,1.42539 4.890281,2.14016 7.780668,2.14016 2.336074,0 4.493031,-0.47643 6.472749,-1.42674 1.97972,-0.98987 3.644632,-2.31588 4.990851,-3.97883 v 16.03402 c 0,0.87117 0.274978,1.58579 0.829426,2.14024 0.593898,0.594 1.348406,0.89025 2.259036,0.89025 0.871121,0 1.58298,-0.29631 2.137316,-0.89025 0.554446,-0.55445 0.833858,-1.26907 0.832287,-2.14024 l -0.04489,-25.81284 c 0.0011,-0.0808 0.01683,-0.15657 0.01683,-0.23794 v -14.49122 c 0,-0.87107 -0.45175,-1.58287 -1.006254,-2.13732 -0.593898,-0.594 -1.327081,-0.89317 -2.198204,-0.89317 H 75.660141 Z m 0.147872,5.32437 c 2.019298,0 3.818895,0.49497 5.402644,1.48479 1.583749,0.95024 2.83322,2.27911 3.743905,3.98169 0.910629,1.66294 1.365859,3.56327 1.365859,5.70137 0,2.09849 -0.455118,3.99882 -1.365859,5.70138 -0.910685,1.66295 -2.160156,2.98891 -3.743905,3.97877 -1.583749,0.95009 -3.383346,1.42389 -5.402644,1.42389 -1.979713,0 -3.782195,-0.47363 -5.405581,-1.42389 -1.583766,-0.98986 -2.851597,-2.31582 -3.801869,-3.97877 -0.910668,-1.70256 -1.365887,-3.60289 -1.365887,-5.70138 0,-2.1381 0.455231,-4.03843 1.365887,-5.70137 0.950272,-1.70258 2.218103,-3.03145 3.801869,-3.98169 1.623386,-0.98982 3.425868,-1.48479 5.405581,-1.48479 z" />
    <path
       d="m 112.81988,168.43502 q -0.95025,0 -1.78175,-0.53481 -0.77207,-0.59391 -1.06906,-1.42541 l -8.78995,-26.3698 q -0.47532,-1.84118 0,-2.9696 0.53425,-1.18779 2.25691,-1.18779 1.12842,0 1.84112,0.65327 0.77207,0.59389 1.24723,2.07873 l 7.48335,23.40025 H 111.929 l 7.06757,-23.87542 q 0.29687,-1.00967 1.00968,-1.60356 0.7127,-0.65327 1.95993,-0.65327 1.1878,0 1.9005,0.65327 0.77213,0.59389 1.00968,1.60356 l 5.76097,22.45001 h -0.89087 l 7.0082,-21.97484 q 0.8315,-2.732 3.08835,-2.732 1.66295,0 2.25684,1.18779 0.59396,1.12842 -0.0595,2.9696 l -8.78995,26.3698 q -0.23738,0.8315 -1.00962,1.42541 -0.77213,0.53481 -1.78176,0.53481 -0.95029,0 -1.78174,-0.53481 -0.8315,-0.59391 -1.06905,-1.42541 l -6.11732,-22.62818 h 0.59396 l -6.4143,22.62818 q -0.23738,0.8315 -1.06905,1.42541 -0.77208,0.53481 -1.78176,0.53481 z"
       style="font-style:normal;font-variant:normal;font-weight:bold;font-stretch:normal;font-size:10.5833px;line-height:1.25;font-family:Comfortaa;-inkscape-font-specification:'Comfortaa Bold';letter-spacing:-0.264583px;fill:#ffffff;stroke-width:1.48478"
       id="path1513" />
  </g>
</svg>
